<?xml version="1.0" encoding="UTF-8"?>
<svg id="Calque_1" data-name="Calque 1" xmlns="http://www.w3.org/2000/svg" viewBox="0 0 53.37 30.53">
  <defs>
    <style>
      .cls-1 {
        fill: #472e16;
      }

      .cls-1, .cls-2, .cls-3 {
        stroke-width: 0px;
      }

      .cls-4 {
        opacity: .38;
      }

      .cls-2 {
        fill: #f5efea;
      }

      .cls-3 {
        fill: #462e17;
      }
    </style>
  </defs>
  <rect class="cls-2" width="53.37" height="30.53"/>
  <g class="cls-4">
    <path class="cls-3" d="M7.23,4.68c-1.05,1.58,1.58,2.64,0,5.54s-1.32.53-1.85,3.96"/>
    <path class="cls-1" d="M7.27,4.71c-.18.95.4,1.37.61,2.26.14,1.33.03,2.83-.56,4.04-.21.45-.57,1.04-1.05,1.35-.34.52-.47,1.25-.84,1.82,0,0-.1-.02-.1-.02-.09-.45-.14-.89-.13-1.34-.03-.49.14-1.11.57-1.43.61-.8,1.83-1.86,1.81-3.03-.17-.88-.84-1.4-.93-2.37-.09-.5.1-1.11.53-1.35l.08.06h0Z"/>
  </g>
  <g class="cls-4">
    <path class="cls-1" d="M35.63,3.13c-.25.83-.63,1.51-.98,2.13-.19.29-.43.61-.26.88.28.34.62.21,1.03.15.11-.01.35,0,.52.19.47.66.05,1.63.04,2.31-.09.45.04.72-.09,1.24-.2.54-.56.77-.92,1.01,0,0-.08-.06-.08-.06.1-.41.26-.84.23-1.09-.04-.15-.23-.71-.2-1.17.06-.67.29-1.31.48-1.84.06.01.07-.02-.01-.05-.33-.08-.89-.13-1.22-.47-.96-1.23.29-2.75,1.41-3.3,0,0,.07.07.07.07h0Z"/>
  </g>
  <g class="cls-4">
    <path class="cls-3" d="M16.89,21.88c.92.92.13,2.11,0,2.51s.79-.53,0,.79,2.08,3.82-.01,2.9"/>
    <path class="cls-1" d="M16.92,21.85c1.15.37.97,2.02.16,2.61,0-.01,0-.1-.11-.14-.07-.02-.06,0-.05,0,.15.02.17-.12.4.04.14.28-.19.7-.22,1.01,0,.91.96,1.76.92,2.83,0,.11-.13.34-.3.37-.27.06-.33-.03-.44-.07-.16-.12-.51-.34-.39-.47.18-.01.36,0,.51-.03.05,0,.17-.05.05-.05-.09,0-.17.16-.17.18-.63-.58-1.38-2.09-.68-3.02.17-.22.35-.34.44-.59.02-.02-.01-.06.03.02.12.08.07.03.05.05-.1.04-.14.1-.3.06-.15-.05-.15-.2-.15-.25.03-.96.45-1.59.18-2.5,0,0,.07-.07.07-.07h0Z"/>
  </g>
  <g class="cls-4">
    <path class="cls-3" d="M42.58,11.76c-.16,1.12,1.8,2.34,2.22,3.16s.67,1.88,1.51,2.93.97,1.88.97,1.88"/>
    <path class="cls-1" d="M42.63,11.76c.31.71.92,1.02,1.4,1.66.59,1.01,1.36,2.05,1.97,3.04.64.99,1.53,1.94,1.33,3.26,0,0-.1.02-.1.02-.49-.67-.95-1.14-1.48-1.74-.51-.69-.79-1.51-.89-2.29-.07-.39-.15-.78-.42-1.03-.62-.49-1.42-.79-1.79-1.6-.2-.36-.35-.91-.11-1.32h.1Z"/>
  </g>
  <g class="cls-4">
    <path class="cls-1" d="M35.35,17.32c.67,1.71,1.07,3.89.42,5.65-.15.28-.57.29-.74-.02-.42-.65-.99-1.49-1.44-2.12-.21-.36-.5-.62-.59-1.18-.03-.76.99-.64,1.46-.42,2.31,1.14,2.55,4.08,4.49,5.49.28.26.69.18,1.04.28,0,0,0,.1,0,.1-.38.07-.91.29-1.29.06-2.4-.79-2.78-3.82-4.62-5.22-.15-.09-.4-.21-.55-.25.02-.01.04-.09.01-.04.1,1.05,1.05,2.09,1.82,2.8.04.03.13.12.16.14,0-.02,0-.02-.04-.04-.08-.06-.26,0-.3.06.07-1.08-.15-4.52.16-5.31h0Z"/>
  </g>
  <g class="cls-4">
    <path class="cls-1" d="M19.94,10.1c.34.83.58,1.69.72,2.57.08.44.12.89.14,1.35,0,.46,0,.92-.2,1.44-.05.13-.14.27-.27.41-.14.15-.4.22-.54.22-.3,0-.52-.07-.75-.14-.44-.15-.84-.35-1.25-.53-.4-.19-.8-.38-1.19-.62-.19-.12-.39-.24-.57-.43-.08-.1-.2-.21-.2-.45.01-.25.2-.39.32-.47.51-.26.97-.27,1.41-.32l1.29-.12,2.58-.32c1.73-.18,3.46-.35,5.24-.4l.02.1c-1.65.67-3.37,1.09-5.12,1.36-.88.13-1.76.18-2.65.2-.45,0-.89.01-1.34-.02-.42-.02-.87-.08-1.18,0-.06.03-.07.03-.08.01-.02-.01,0,.07.05.14.1.15.26.29.43.42.34.25.73.44,1.13.6.4.15.83.25,1.24.29.2.02.42.02.55-.01.08-.03.04-.03.05-.05l.05-.16c.14-.67.09-1.59.07-2.43-.03-.86-.06-1.74-.05-2.63l.1-.02Z"/>
  </g>
</svg>