<?xml version="1.0" encoding="UTF-8"?>
<svg xmlns="http://www.w3.org/2000/svg" viewBox="0 0 778 612.3">
  <defs>
    <style>
      .cls-1 {
        fill: #b58367;
        isolation: isolate;
        opacity: .49;
      }

      .cls-1, .cls-2, .cls-3, .cls-4, .cls-5, .cls-6, .cls-7, .cls-8, .cls-9, .cls-10, .cls-11, .cls-12, .cls-13, .cls-14, .cls-15, .cls-16, .cls-17, .cls-18, .cls-19, .cls-20, .cls-21, .cls-22 {
        stroke-width: 0px;
      }

      .cls-2, .cls-23, .cls-24 {
        fill: #e7c2a6;
      }

      .cls-25, .cls-26, .cls-27, .cls-23, .cls-28, .cls-29, .cls-24, .cls-30, .cls-31, .cls-32, .cls-33, .cls-34, .cls-35, .cls-36, .cls-37, .cls-38 {
        stroke-miterlimit: 10;
      }

      .cls-25, .cls-26, .cls-23, .cls-24, .cls-30, .cls-33, .cls-34, .cls-38 {
        stroke: #000;
      }

      .cls-25, .cls-29, .cls-24, .cls-32, .cls-35, .cls-38 {
        stroke-width: 2px;
      }

      .cls-25, .cls-29, .cls-35, .cls-37 {
        fill: none;
      }

      .cls-3 {
        fill: #000;
      }

      .cls-26 {
        fill: #c4e5ee;
      }

      .cls-27 {
        fill: #f1db62;
      }

      .cls-27, .cls-28, .cls-31, .cls-32, .cls-35, .cls-36, .cls-37 {
        stroke: #1d1d1b;
      }

      .cls-28 {
        fill: #60626d;
      }

      .cls-4 {
        fill: #6c7c8b;
      }

      .cls-29 {
        stroke: #79512e;
      }

      .cls-5, .cls-38 {
        fill: #6b686f;
      }

      .cls-6 {
        fill: #d6a6a4;
      }

      .cls-7 {
        fill: #12100e;
      }

      .cls-8 {
        opacity: .35;
      }

      .cls-8, .cls-19 {
        fill: #fff;
      }

      .cls-9 {
        fill: #622617;
      }

      .cls-10 {
        fill: #a6abba;
      }

      .cls-30 {
        fill: #482e13;
      }

      .cls-31 {
        fill: #3fbcd5;
      }

      .cls-11 {
        fill: #9dc2ae;
      }

      .cls-32, .cls-21 {
        fill: #f9f9f7;
      }

      .cls-12 {
        fill: #d3a49f;
      }

      .cls-33 {
        fill: #466dae;
      }

      .cls-34 {
        fill: #5aa3da;
      }

      .cls-13 {
        fill: #c0a089;
      }

      .cls-14 {
        fill: #93735b;
      }

      .cls-15 {
        fill: #704f32;
      }

      .cls-16 {
        fill: #41a9c8;
      }

      .cls-17 {
        fill: #79512e;
      }

      .cls-18 {
        fill: #1d1d1b;
      }

      .cls-36 {
        fill: #b92343;
      }

      .cls-39 {
        opacity: .54;
      }

      .cls-20 {
        fill: #e0bfa5;
      }

      .cls-22 {
        fill: #a0a0ae;
      }
    </style>
  </defs>
  <g id="Calque_1" data-name="Calque 1">
    <g>
      <g>
        <path class="cls-10" d="M319.87,285.31s-.59-4.75,6.13-3.36,35.41,6.92,43.91,15.43,13.05,13.25,9.3,22.35-13.05,19.98-15.43,22.75l-2.37,2.77"/>
        <path class="cls-3" d="M319.87,285.31c-.45-2.89,2.35-4.27,4.89-3.97,2.06.15,4.97.76,7.02,1.06,9.9,1.76,19.75,4.01,29.12,7.82,2.14.97,4.5,2.05,6.46,3.34,3.66,2.31,6.35,5.55,9.26,8.69,3.08,3.4,5.85,8.05,5.18,12.91-.37,2.83-1.54,5.51-2.83,7.85-4.59,8.38-10.92,15.5-17.56,22.23,2.82-3.78,5.71-7.47,8.33-11.35,3.73-5.66,7.92-11.59,9.3-18.22,1.11-6.97-5.09-11.91-9.45-16.5-1.19-1.25-2.43-2.25-3.83-3.14-1.28-.86-3.04-1.79-4.46-2.45-9.48-4.41-19.71-7.1-29.83-9.76,0,0-3.41-.87-3.41-.87-2.91-.84-8.08-2.21-8.19,2.35h0Z"/>
      </g>
      <g>
        <path class="cls-23" d="M155.99,375.51s-2.09,32.04-5.15,37.58-3.53,16.42,0,31.45c3.53,15.03,6.64,45.89,7.82,51.03s2.77,25.36,9.12,29.51,30.3,26.92,34.77,30.85,7.05,12.04,8.7,12.43l1.65.4s26.13-14.24,26.83-15.43-8.93-7.12-7.48-7.91c24.6-13.45-18.84-20.36-24.41-25.71-3.74-3.59-15.14-2.37-8.42-20.97,1.46-4.03.32-37.38-.15-40.55s-3.53-44.9-2.59-50.64,1.73-22.45,1.73-22.45c0,0-3.8-13.95-10.07-12.63s-34.94,2.25-32.34,3.04Z"/>
        <g>
          <path class="cls-10" d="M207.82,195.67c1.71,0,81.39-20.33,95.13-19.54s39.86,1.58,44.41,1.58,33.63.59,42.73,13.05,17.8,41.74,16.22,51.43-5.74,31.05-6.53,34.62-3.49,7.38-3.23,8.7,5.01,9.76,5.27,16.35,3.43,59.87,2.64,66.73,17.41,54.07,23.74,69.63,13.98,58.55,13.19,60.92-62.24,41.41-82.02,47.21-66.46,10.29-76.22,9.49-52.48.18-58.02.09-11.08.17-9.76-7.74.26-43.52,0-50.11,0-43.25,2.11-49.58,3.43-3.69,1.58-8.18-20.31-67.52-24-68.04-14.51,5.01-24,2.9-13.71.53-19.52.26-6.59.79-7.38-1.58-14.77-120.79,7.12-138.99c0,0,51.92-39.21,56.55-39.21Z"/>
          <path class="cls-3" d="M207.82,195.67c30.38-6.75,60.48-15.36,91.37-19.49,1.55-.1,3.13-.17,4.68-.09,10.62.62,22.08.9,32.68,1.26,12.28.31,25.25.11,37.13,3.62,10.74,3.12,16.12,6.88,21.04,17.11,5.54,10.95,13.41,32.72,11.81,44.9-1.42,8.82-3.39,18.74-5.06,27.59-.34,1.87-1.01,5.15-1.41,6.9-.62,2.79-2.57,5.21-3.07,7.95,2.12,5.19,4.89,10.34,5.3,16.07.1,2.84.64,11.02.77,14,.6,11.08,1.45,26.44,1.86,37.35.16,5.28.48,10.58.19,15.86-.05.9.1,1.78.25,2.71,2.72,12.09,7.35,23.74,11.53,35.41,3.19,8.46,6.69,17.72,10.08,26.14,6.16,14.4,9.18,29.9,12.25,45.17,1.15,6.14,2.29,12.26,2.99,18.53.07.87.2,1.77.04,2.66.03.09-.24.55-.3.59-1.64,1.67-3.66,2.89-5.52,4.25-12.9,8.8-26.22,16.92-39.71,24.76-5.4,3.12-10.85,6.17-16.38,9.08-6.94,3.55-13.95,7.34-21.52,9.53-10.58,2.86-21.46,4.44-32.3,5.9-12.4,1.59-24.81,2.88-37.31,3.38-3.11.16-6.32-.06-9.4-.2-9.32-.28-18.67-.14-27.99-.07,0,0-18.69.22-18.69.22-3.11.03-6.24.09-9.37.03-2.39-.07-5.11-.04-7.27-1.47-3.75-2.97-1.51-7.86-1.58-11.83.16-3.09.2-6.2.24-9.3.08-12.46-.19-24.89-.58-37.35-.1-12.5.13-24.95.89-37.43.41-5.37.51-11.37,3.73-15.96.28-.55-.07-1.17-.26-1.76,0,0-.43-1.07-.43-1.07-.27-.63-.91-2.65-1.14-3.36-4.86-15.44-10.36-33.69-15.67-48.94-1.56-4.39-3.09-8.8-5.06-13.01-.53-.83-.91-2.08-1.66-2.6-3.41-.02-6.75,1.45-10.1,2.11-4.56,1.08-9.4,1.72-14.04.7-4.55-1.08-9.2-.96-13.8-.15-1.54.23-3.11.43-4.7.42-2.41-.19-4.67.15-7.08-.14-.89-.24-1.31-1.2-1.47-2.04-.26-1.56-.44-3.1-.63-4.65-2.13-18.58-3.43-37.25-4.04-55.93-.32-19.23-1.71-63.43,11.23-77.39,0,0,.86-.8.86-.8,0,0,.94-.7.94-.7,7.96-5.84,16.44-12.32,24.45-18.03,8.87-6.34,17.66-12.82,26.99-18.47,1.34-.74,2.7-1.66,4.22-1.95h0ZM207.82,195.67s-.57.11-.57.11l-.54.22c-5.26,2.54-9.98,6.08-14.82,9.32-13.67,9.48-27.25,19.62-40.57,29.61-13.86,12.57-12.23,59.49-11.89,78.07.64,18.67,2.08,37.33,4.28,55.88.2,1.54.38,3.1.64,4.61.16.67.45,1.47,1.08,1.59.66.16,1.47.08,2.24.07,3.13-.09,6.19.2,9.28-.42,4.6-.84,9.44-.98,14.04.09,4.56.97,9.22.32,13.72-.77,3.47-.69,6.8-2.24,10.41-2.17,1.26.5,1.66,1.99,2.29,3.04,2.01,4.25,3.58,8.67,5.17,13.08,3.5,10.25,8.44,25.03,11.68,35.53,1.67,5.03,3.87,12.84,5.81,17.73.31.82.72,1.88.22,2.73-1.29,2-2.14,4-2.6,6.27-1.33,9.18-1.33,18.59-1.59,27.87-.1,6.22-.16,12.46-.04,18.66.45,12.45.79,24.93.77,37.4-.06,4.72-.02,9.42-.62,14.13-1.04,5.85,2.18,6.78,7.6,6.73,14.57-.04,32.18-.46,46.72-.42,6.21-.13,12.46.49,18.65.32,12.4-.51,24.81-1.83,37.12-3.43,12.2-1.78,24.68-3.28,36.35-7.35,11.47-4.61,22.36-10.82,33.13-16.92,15.05-8.87,31.2-18.21,44.74-28.41-.34-6.81-1.85-13.6-3.02-20.38-1.16-6.11-2.43-12.2-3.84-18.26-1.81-7.55-3.62-15.09-6.5-22.28-1-2.56-4.1-10.33-5.13-13.06-4.46-11.65-8.81-23.34-12.79-35.16-2.08-6.74-4.74-13.4-5.47-20.48.02-.68.08-1.68.12-2.36.04-19.54-1.53-41.06-2.37-60.64-.18-2.57-.15-6.66-1.02-9.16-1.01-3.97-2.96-7.63-4.41-11.47-.07-.73.18-1.33.43-1.95.94-2.18,2.07-4.15,2.69-6.4.64-2.5.92-4.54,1.43-6.83,1.67-8.8,3.73-18.73,5.19-27.54.92-6.11-.65-12.36-1.99-18.33-1.52-6.03-3.43-11.96-5.72-17.74-1.17-2.88-2.39-5.74-3.82-8.5-2.13-4.09-4.37-8.34-8.13-11.14-8.9-6.39-20.27-7.96-30.94-8.97-5.32-.42-13.24-.4-18.67-.59-10.6-.38-22.07-.71-32.69-1.32-1.55-.09-3.11-.02-4.65.08-30.88,4.07-61.01,12.62-91.39,19.31h0Z"/>
        </g>
        <path class="cls-38" d="M217.06,554.64s-3.22,35.68-3.22,46.17,33.82,5.74,39.16,5.54,186.33,12.74,182.77-2.43-8.26-91.2-10.26-93.64-31.61,50.46-208.46,44.36Z"/>
        <g>
          <path class="cls-10" d="M324.55,259.93s9.1-22.68,13.32-24.79,10.15-9.76,26.37-8.84"/>
          <path class="cls-3" d="M324.55,259.93c2.59-7.92,5.57-15.85,10.14-22.88.73-.99,1.42-2.05,2.8-2.85.94-.47,1.89-1.18,2.86-1.85,6.69-5.25,15.59-7.4,23.9-6.05-8.33.12-16.27,2.44-22.76,7.64-1.75,1.43-3.85,2.06-5.2,4.24-4.59,6.84-7.88,14.45-11.73,21.74h0Z"/>
        </g>
        <g>
          <path class="cls-10" d="M349.47,224.46s-1.79-1.59-8.97,7.52"/>
          <path class="cls-3" d="M349.44,224.49c-.46-.02-.86.26-1.25.49-.78.57-1.7.97-2.51,1.51-1.13.99-1.81,2.42-2.84,3.49-.7.72-1.4,1.43-2.29,2.01l-.08-.06c.89-2.53,3-4.09,5-5.69.81-1.01,1.8-2.11,3.23-2.13.28,0,.61.04.82.29l-.07.07h0Z"/>
        </g>
        <g>
          <path class="cls-10" d="M368.2,208.5s-14.37-1.19-26.37,11.6"/>
          <path class="cls-3" d="M368.19,208.6c-3.61.99-7.18,1.33-10.83,1.88-2.39.64-4.33,2.25-6.38,3.54-1.98,1.35-3.96,2.78-5.96,4.1-1.02.67-1.98,1.43-3.12,2.05,0,0-.15-.14-.15-.14,2.82-5.1,8.09-8.24,13.63-9.56,3.01-.9,5.75-2.81,9.03-2.63,1.27.01,2.56.11,3.79.56l-.02.2h0Z"/>
        </g>
        <g>
          <path class="cls-10" d="M373.73,197.56c-1.05,0-20.31,1.58-29.93,15.3"/>
          <path class="cls-3" d="M373.73,197.66c-2.8.88-5.51,1.65-8.29,2.23-2.88.33-5.68,1.01-8.11,2.66-.63.43-3.85,2.6-4.41,2.98-.78.64-1.72,1.29-2.51,1.91-2.26,1.66-4.29,3.55-6.54,5.48l-.16-.11c1.81-4.06,5.13-7.45,9.09-9.47,2.54-1.5,5.49-2.09,8.18-3.23,2.62-1.28,5.36-2.56,8.32-2.73,1.46-.14,2.94-.2,4.43.1v.2h0Z"/>
        </g>
        <g>
          <path class="cls-10" d="M350.53,196.37s8.18-11.34,8.24-6.73-10.62,11.34-14.97,16.22"/>
          <path class="cls-3" d="M350.44,196.31c.85-2.09,2.08-3.93,3.53-5.64,1.06-1.19,2.25-2.36,3.92-2.67,1.3-.11,1.39,1.4,1.14,2.3-1.35,4.35-4.74,7.62-8.09,10.5-2.28,1.84-4.65,3.44-7.07,5.13,0,0-.15-.13-.15-.13,2.32-3.86,5.77-6.62,9.17-9.38,1.97-1.83,4.96-3.4,5.5-6.22.03-.37.04-.96-.23-1.16-.01-.01-.02.05-.09.06-2.61,2.22-4.62,5.07-7.46,7.33,0,0-.16-.12-.16-.12h0Z"/>
        </g>
        <g>
          <path class="cls-10" d="M334.11,257.72c-.3.3,4.05-8.11,6.33-10.38s-1.48-4.76,3.96-4.26,8.41-1.28,6.73.9-4.05.79-6.13,2.97"/>
          <path class="cls-3" d="M334.14,257.76s.01.05-.09,0c-.02-.06,0-.05,0-.1,0-.03.05-.17.06-.2.96-2.65,2.27-5.18,3.85-7.51.78-1.19,1.94-2.27,2.81-3.32.37-.59.38-1.3.3-2.02-.01-.36-.08-.77.15-1.18.23-.38.67-.54,1.07-.62,1.48-.28,2.9-.01,4.37-.11,1.54,0,3.03-.39,4.67-.35.13.03.28.03.53.22.4.38.24.82.06,1.14-.6,1.06-1.76,1.81-2.91,1.98-1.46.22-2.84.27-3.98,1.28,0,0-.07-.07-.07-.07.44-.59,1.07-1.07,1.77-1.35,1.59-.6,3.51-.64,4.3-2.34.11-.26-.04-.02.15.15-1.79.23-4.6.43-6.71.12-.93-.04-2.16-.46-2.89.18-.43.86.13,2.14-.53,3.12-.85,1.19-1.72,2.31-2.39,3.61-1.42,2.37-3.06,5.06-4.52,7.3-.1-.04-.04,0-.07-.01l.07.07h0Z"/>
        </g>
        <g>
          <path class="cls-10" d="M165.38,283.53s21.36,49.45,22.95,59.74,5.14,22.15,5.14,23.34v3.96"/>
          <path class="cls-3" d="M165.47,283.49c3.65,6.76,6.82,13.75,9.58,20.91,2.47,7.18,5.11,14.57,8.21,21.48,2.27,5.31,4.53,10.71,5.9,16.35.41,1.69.7,3.95,1.06,5.64,1.07,6.25,2.76,12.44,3.64,18.74-.1,1.31-.18,2.64-.3,3.95,0,0-.2,0-.2,0-.16-1.4-.15-2.84-.36-4.23-2.37-7.77-4.69-15.65-5.89-23.7-1.18-5.57-3.21-10.9-4.87-16.36-3.32-11.04-9.15-21.06-13.09-31.86-1.38-3.57-2.69-7.18-3.87-10.83,0,0,.18-.08.18-.08h0Z"/>
        </g>
        <g>
          <path class="cls-10" d="M158.66,299.36c0,2.77,9.1,32.44,14.64,42.33s4.67,11.87,5.9,13.85"/>
          <path class="cls-3" d="M158.76,299.36c1.53,4.72,3.34,9.39,4.63,14.2,1.11,4.88,2.39,9.72,4.56,14.26,2.1,4.48,4,9.11,6.33,13.44,1.78,3.34,3.41,6.86,4.2,10.59.29,1.25.32,2.51.8,3.63,0,0-.17.11-.17.11-.42-.5-.69-1.11-.92-1.7-1.5-4.06-3.6-7.85-5.78-11.59-3.73-6.67-5.25-14.13-7.78-21.25-1.87-4.65-3.92-9.25-4.95-14.19-.55-2.47-1.17-4.93-1.12-7.49,0,0,.2,0,.2,0h0Z"/>
        </g>
        <g>
          <path class="cls-10" d="M151.54,363.84c1.98,0,6.26,5.55,27.66,2.18"/>
          <path class="cls-3" d="M151.54,363.84c.61-.07,1.21.18,1.77.33,1.65.55,3.33.98,5.03,1.28,5.71.94,11.52.64,17.3.57,4.16-.09,4.26-.09.12.97-6.94,1.46-14.64,1.9-21.14-1.4-1.08-.51-1.97-1.36-3.08-1.75h0Z"/>
        </g>
        <g>
          <path class="cls-32" d="M10.91,95.04h94.68c18.8,0,28.54-6.04,37.59-2.78s15.32,20.66,14.62,35.98-19.49,116.96-12.53,128.1c6.96,11.14-47.34,10.23-53.61,9.64s-62.66-8.95-73.8-9.64c-11.14-.7-15.32-31.05-16.71-45.46s6.27-111.43,9.75-115.83Z"/>
          <path class="cls-17" d="M26.33,106.98c.71,1.57,1.55,2.92,2.65,4.03,1.18,1.2,2.6,2.04,3.7,3.43,1.18,1.46,1.49,3.45,1.2,5.25-.27,1.78-1.29,3.28-1.86,4.8-1.54,3.75.82,7.62,3.9,9.66,1.37.96,3.6,2.08,3.52,4.11-.01,1.02-.49,1.8-.92,2.54,0,0-.18-.08-.18-.08.29-1.55.4-3.06-1.2-3.8-1.34-.69-3.08-1.4-4.47-2.7-2.01-2.01-3.18-4.9-2.72-7.71.69-3.25,4.7-5.62,2.86-9.2-1.16-2.25-3.39-3.11-4.99-5.3-1.09-1.47-1.71-3.26-1.67-5,0,0,.2-.04.2-.04h0Z"/>
          <path class="cls-17" d="M49.73,121.89c.46.44.48.96.63,1.44.32,1.43.5,2.89.72,4.32.73,3.67.9,7.61,3.27,10.64,1.24,1.55,2.71,2.73,4.17,4.09,2.28,2.02-.29,4.14-1.47,5.71-.24.36-.28.5-.27.75.81,3.96,3.8,9.12.82,12.91-.65.78-1.28,1.44-1.81,2.27l-.18-.08c.22-.97.72-1.9,1.14-2.74,1.29-2.6-.11-5.15-.85-7.83-.42-1.78-1.55-3.68-.86-5.59.57-1.19,1.83-2.08,2.54-2.92.63-.72.65-.95.11-1.76-1.13-1.49-2.5-2.95-3.82-4.37-2.95-2.77-4.33-6.95-4.33-10.93-.06-1.43.04-2.97.13-4.4.02-.46.09-1-.05-1.34l.12-.16h0Z"/>
          <path class="cls-17" d="M71.57,117.67c-.28.83-.79,1.62-.79,2.25,0,.62.37,1.24.82,1.88,2.41,2.81,4.71,5.93,7.13,8.8,1,.95.85,2.62,1.09,3.79.28,1.62.86,3.25.77,5.16,0,.48.35,1.68.47,2.22.48,2.55,2.55,7.96-.98,8.98-.31.13-.39.12-.51.46-.2.65-.07,1.56-.04,2.4l-.19.06c-.18-.39-.38-.78-.51-1.21-.2-.57-.34-1.2-.21-1.82.09-.44.52-.89.87-1.07.46-.26.62-.4.68-.57.35-1.1-.31-3.01-.59-4.28-.3-1.19-.57-2.56-.77-3.78-.19-.74-.04-1.84-.02-2.66,0,0-.03-1.23-.03-1.23-.15-1.58.13-3.55.04-5.07-.94-2.24-3.56-3.55-5.25-5.26-1.67-1.75-4.31-4.29-3.8-7,.36-1.05,1.09-1.54,1.67-2.16,0,0,.17.1.17.1h0Z"/>
          <path class="cls-17" d="M99.78,146.36c.23.77,1.29,1.88,1.78,2.57,2.61,3.46,5.79,7.27,5.58,11.92-.13,3.57-5.21,5.51-8.22,4.33-.61-.27-1.34-.75-1.32-1.56.59-2.87,7.62,1.14,8.63,2.57,1.51,2.02,1.88,3.82,3.11,5.91,1.46,2.95,2.55,6.63,1.22,9.8,0,0-.19-.05-.19-.05.43-4.49-2.41-7.95-4.38-11.71-.88-2.07-1.6-3.38-3.58-4.46-1.18-.63-2.34-1.42-3.6-1.64-.12,0,.14-.11.12-.31,1.18,1.57,4.53,1.1,6.16-.31,1.67-1.43.82-3.75.04-5.46-1.47-3.36-3.65-6.57-5.18-9.97-.19-.52-.47-1.03-.38-1.69l.2.04h0Z"/>
          <path class="cls-17" d="M75.78,172.08c2.95,5.32,10.7,15.33,7.84,21.79-2.36,4.04-12.43.6-16.02-.61-.92-.42-3.38-1.15-2.34-2.55.45-.44,1.11-.33,1.64-.28,7.61.88,11.49,7.44,13.63,14.09.33.85.55,1.69,1.01,2.38,1.16,1.04,1.27,2.93,1.04,4.33-.23,1.6-.72,3.11-1.34,4.55,0,0-.19-.06-.19-.06.37-2.18.85-4.55.24-6.66-.23-.63-.34-.6-.83-1.09-.17-.17-.36-.39-.47-.6-3.41-6.78-5.53-14.01-13.79-15.38.37-.12.57-.72.31-1.03-.03-.02.12.13.25.21,4.17,2.79,18.86,8.25,15.7-1.94-1.14-4.15-3.42-8.7-5.21-12.71-.61-1.46-1.36-2.83-1.66-4.42,0,0,.2-.03.2-.03h0Z"/>
          <path class="cls-17" d="M42.67,169.6c3.71,4.33,6.67,9.93,9.39,14.94,2.35,4.2,5.45,9.49,2.57,14.25-1.62,3.32-5.88,1.53-8.29.21-1.63-1.02-3.51-1.89-4.58-3.56-.11-.21,0-.71.28-.8.32-.14.4-.07.52-.08,2.06.43,3.93.96,5.77,1.95,5.91,2.77,7.57,9.92,7.49,15.89.02,1.58,0,2.22.54,3.55.19.52-.06,1.37-.66,1.61-.33.15-.52.16-.66.19-1.18.06-2.05.37-2.85,1.43-1.8,2.15-3.88,4.53-5.42,6.84-1.05,1.6-2.1,3.27-2.35,5.19,0,0-.2,0-.2,0-.1-2.02.78-3.95,1.68-5.71,1.33-2.54,3.18-5.1,4.88-7.42.69-1.1,2.17-2.15,3.63-2.26,0,0,.34-.05.34-.05.1-.01.15-.04.04,0-.1.05-.16.1-.28.27-.09.21-.09.26-.1.33.02.11,0,.06,0,.06-.63-1.21-.66-2.82-.71-3.98-.12-3.75-.34-7.57-2.25-10.82-1.89-3.06-5.49-4.92-9.05-5.99,0-.01-.05.03.16-.05.14-.03.28-.37.21-.48-.02-.02.04.08.09.16,2.28,2.46,5.64,4.93,9.14,4.74,1.97-.28,2.33-2.67,2.58-4.26.22-3.8-2.53-7.02-4.09-10.38-2.7-5.22-5.07-10.55-7.99-15.65,0,0,.16-.12.16-.12h0Z"/>
          <path class="cls-17" d="M26.32,159.53c2.99,5.31,4.82,11.23,5.07,17.32.29,3.01,1.32,6.32-.1,9.29-.66,1.36-2.2,2.43-3.25,3.35-.15.17-.24.43-.33.89-.42,2.84-.97,5.96-1.55,8.75-.33,1.91-.54,3.82.16,5.72,0,0-.17.1-.17.1-2.57-3.4-1.3-8.14-.99-11.99.28-1.57.24-3.58,1.47-4.86.96-.8,1.59-1.08,2.43-1.84,1.02-.88,1.6-2.05,1.87-3.43,1.05-5.98-2.28-11.6-3.52-17.32-.49-1.94-.97-3.89-1.27-5.9,0,0,.19-.07.19-.07h0Z"/>
          <path class="cls-17" d="M126.93,157.14c.4,3.78.96,8.1,2.96,11.26,1.28,1.93,4.97,3.06,4.61,5.94-.95,4.54-4.45,8.15-6.37,12.2-1.04,2.77-.96,5.65-1.1,8.65-.02,1.75-.18,4.39-.11,6.11,0,0-.19.06-.19.06-1.33-4.48-2.09-9.41-1.08-14.05,1.05-3.63,3.95-6.27,6.16-9.16,1.05-1.41,2.71-3.4,1.83-5.18-1.19-1.7-3.57-1.83-5.05-3.5-.79-.88-1.29-1.91-1.61-2.95-.91-3.05-1.11-6.33-.26-9.41,0,0,.2.03.2.03h0Z"/>
          <path class="cls-17" d="M118.92,110.13c2.21,2.65,4.73,5.2,6.58,8.15.94,1.5,1.71,3.12,2.66,4.6.96,1.73,2.45,3.07,2.93,5.08.06.35-.12.84-.41,1.08-.45.41-1.13.63-1.5.92-1.91,1.45-1.96,4.24-2.36,6.45-.35,2.5-.54,5.06-.16,7.57.16.81.31,1.69.9,2.27l-.09.18c-2.94-1.75-3.01-7.22-2.77-10.27.37-3.14,1.35-7.32,4.98-8.05.24-.11.21.01.24-.14-.53-3.46-3.59-6.12-5.77-8.7-2.11-2.68-4.18-5.53-5.38-8.75-.03-.14-.04-.27-.05-.38h.2Z"/>
          <path class="cls-17" d="M98.34,120.17c1.01.61,1.88,1.37,2.74,1.66.43.17.72.15,1.29.12.62-.08,1.6.12,2.09.59,1,.82,1.35,2.08,1.94,3.15,1.02,2.04,2.6,3.81,3.65,5.82,1.75,2.97,2.98,6.13,3.64,9.57,0,0-.18.09-.18.09-1.6-1.75-2.74-3.72-3.81-5.72-1.67-2.97-2.12-6.51-3.85-9.43-.62-.9-1.56-1.72-2.31-2.09-.59-.32-1.39-.14-2.14-.29-1.66-.39-2.7-1.98-3.22-3.34,0,0,.16-.12.16-.12h0Z"/>
          <path class="cls-17" d="M105.94,227.01c4.73-.6,10.7,3.19,8.54,8.59-1.11,2.61-5.02.75-6.96.29-1.56-.49-4.25-1.27-5.77-1.8-.09-.04-.18-.06-.28-.15-.18.62-.05-1.13.29-.91,4.57,1.06,8.95,3.02,12.81,5.74,1.85,1.44,3.64,2.93,4.69,5.16.22.61.45,1.3.21,2.11-.55,1.5-.67,3.07-.49,4.68,0,0-.19.06-.19.06-.68-1.56-.93-3.39-.6-5.09.03-.28-.15-.68-.35-1.07-2.47-3.33-6.43-5.42-9.97-7.52-2.01-1.04-4.06-2.1-6.14-3.05.03,0,.09.01.14,0,.33.22.46-1.51.29-.89l-.03-.03c-.07-.04,0,0-.02,0l.07.04c2.68,1.38,5.69,2.44,8.72,2.5.67,0,1.44,0,1.93-.36.08-.09,0-.02.11-.32,1.3-4.29-3.24-6.92-7.01-7.79,0,0,.02-.2.02-.2h0Z"/>
          <path class="cls-17" d="M75.76,230.25c-2.55,3.83,1.22,6.89,3.99,9.28,1.51,1.3,3.5,2.72,3.96,4.86.65,3.71-3.37,7.2-6.55,8.35-.99.38-2.55.11-2.38-1.34.11-.58.31-.82.48-1.1,1.12-1.52,2.58-2.66,4-3.88,3.26-2.54,7.58-6,11.42-2.27,0,0-.1.17-.1.17-4.01-2.31-6.89,1.31-9.95,3.74-1.28,1.17-2.97,2.3-3.99,3.62,0-.04,0-.1-.03-.23-.07-.28-.42-.43-.39-.38,2.84-.4,7.68-3.09,6.86-6.52-.26-.9-.96-1.6-1.74-2.13-1.69-1.01-3.64-2.07-5.02-3.6-1.89-1.88-3.61-5.02-1.8-7.53.32-.45.71-.81,1.08-1.15l.17.11h0Z"/>
        </g>
        <path class="cls-23" d="M320.66,281.7s3.76,5.99-1.98,4.6-21.16,2.13-71.01-43.44-49.27-41.61-55.89-50.32-11.76-22.55-15.72-27.69-9.1-20.12-13.45-23.12-5.54-5.36-11.47-5.17-9.49-3.05-13.85-2.62,21.16,29.32,17.41,29.51-42.92-26.11-46.09-31.05-11.27-16.94-14.64-13.71-8.31,7.98-5.14,13.71,25.71,34.62,25.71,34.62c0,0-10.09-2.37-10.88-2.77s.4-.4.4-1.58-5.74-7.71-6.33-8.7-11.67,6.33-12.07,9.3-2.97,7.32,0,10.68,5.14,5.93,5.14,5.93c0,0-3.96,4.75-.79,9.49s7.12,7.12,7.12,7.12c0,0-4.95,5.54-1.78,11.27s10.09,8.7,13.05,12.07,14.64,10.88,21.56,11.87,28.09,1.78,33.63,4.95,39.36,42.02,41.93,45.04,45.96,45.48,58.62,56.56,24.8,19.52,28.49,22.68,14.24,16.88,24.26,16.88,25.94-13.98,25.94-13.98c0,0,26.48-27.69,27.86-30.26s9.3-13.05,9.49-17.01-2.37-14.04-5.54-16.02-28.48-19.89-54-18.85Z"/>
        <path class="cls-3" d="M126.14,178.12c-.79,1.05-1.64,1.95-2.3,2.93-.68.96-1.16,1.96-1.61,3.03-.23.52-.44,1.1-.65,1.7-.21.61-.33,1.14-.36,1.81-.08.7-.25,1.3-.38,1.93-.13.62-.29,1.28-.45,1.91-.33,1.26-.77,2.47-1.29,3.63-.51,1.16-1.01,2.32-1.6,3.43-1.2,2.21-2.49,4.31-3.84,6.5l-.19-.06c.14-2.64,1.09-5.09,2.12-7.4.54-1.15,1.19-2.24,1.83-3.33.61-1.1,1.3-2.15,1.97-3.2.32-.54.61-1.06.81-1.66.2-.59.4-1.2.39-1.77-.05-.59-.08-1.32-.08-1.96,0-.65,0-1.31.14-2,.26-1.37,1.07-2.6,2.02-3.55.98-.95,2.12-1.64,3.36-2.08l.12.16Z"/>
        <path class="cls-3" d="M90.81,179.89c8.93-.01,18.03,5.67,21.36,14.04-5.7-6.67-13.09-11.25-21.36-14.04h0Z"/>
        <path class="cls-3" d="M97.14,196.5c4.67,1.08,10.26,3.36,12.46,7.91-3.38-3.7-8.18-5.47-12.46-7.91h0Z"/>
        <path class="cls-3" d="M132.81,171.71c-.09,1.37-.88,2.55-2.14,3.03.22-1.38.89-2.39,2.14-3.03h0Z"/>
        <path class="cls-3" d="M93.78,119.56c4.81,4.05,3.86,9.98-1.93,12.42-.68.24-1.35.5-2.03.71.59-.41,1.2-.76,1.79-1.14,5-3.19,5.51-7.2,2.16-11.99h0Z"/>
        <path class="cls-3" d="M102.48,137.75c-1.31,1.09-2.79,1.32-3.56,2.87-.77-1.93,1.93-3.32,3.56-2.87h0Z"/>
        <path class="cls-3" d="M364.24,418.44c-13.04,8.41-26.56,16.07-40.61,22.7-4.65,2.17-9.66,4.28-14.59,5.77-2.67.69-5.27,1.06-7.9,1.28-2.62.23-5.3.21-7.71.38-2.44.12-4.19.94-5.62,2.93-.66.81-1.39,2.18-1.9,3.11-2.71,6.69-7.67,10.68-14.36,13.1-4.95,1.78-10.12,2.72-15.29,2.88,7.51-1.28,15.12-3.41,21.17-8.09,3.09-2.33,4.82-5.44,6.23-9.01,1.81-4.06,4.74-7.57,9.5-7.73,5.19-.37,10.18-.34,15.09-1.72,4.8-1.35,9.54-3.43,14.23-5.47,14.13-6.25,27.86-13.34,41.77-20.12h0Z"/>
        <path class="cls-3" d="M373.6,421.86c-3.76,6.36-7.68,12.77-9.36,20.04.29-7.54,4.49-14.51,9.36-20.04h0Z"/>
        <path class="cls-3" d="M406.26,377.82c1.37,7.66,2.08,15.65,2.72,23.4.55,7.85,1.04,15.65.76,23.55-2.09-7.64-3.12-15.46-3.75-23.32-.52-7.87-.74-15.77.27-23.62h0Z"/>
        <g>
          <path class="cls-5" d="M310.25,562.24s-1.66,10.29,2.3,18.59"/>
          <path class="cls-3" d="M310.25,562.24c.61,6.3,1,12.39,2.3,18.59-3.94-5.16-4.48-12.59-2.3-18.59h0Z"/>
        </g>
        <g>
          <path class="cls-5" d="M423.71,529.2s-5.54,19.38-2.77,21.36,6.33,2.37,2.77,8.31-8.31,8.31-20.57,8.31-10.49-2.37-16.52,0"/>
          <path class="cls-3" d="M423.71,529.2c-1.15,5.87-2.53,11.89-2.76,17.84.02.93,0,2.03.44,2.77,1.56,1.17,3.67,1.64,4.52,3.74.64,1.86-.18,3.56-.97,5.1-.77,1.4-1.64,2.72-2.73,3.92-4.39,4.84-11.51,5.4-17.6,5.36-3.06-.03-6.12-.19-9.16-.7-1.52-.24-3-.71-4.45-.84-1.49-.11-2.97.35-4.39.78,1.37-.64,2.8-1.28,4.4-1.31,1.59,0,3.06.32,4.56.4,2.99.27,6,.22,9.01.11,5.7-.33,12.1-.7,16.16-5.15.96-1.03,1.79-2.25,2.49-3.5.57-1.04,1.24-2.42.92-3.52-.25-1.02-2.24-1.9-3.49-2.79-3.75-2.39,1.81-18.38,3.05-22.22h0Z"/>
        </g>
        <g>
          <path class="cls-5" d="M227.49,564.81c2.97-1.19,24.1-.99,28.76-.99s6.05-.99,11.19,0,9.3,3.76,12.86,3.36"/>
          <path class="cls-3" d="M227.49,564.81c4.25-1.38,8.86-1.37,13.29-1.71,5.54-.3,11.14-.27,16.67-.28,2.22-.06,4.47-.47,6.74-.29,3.43.22,6.75,1.45,9.81,2.8,2.04.87,4.05,1.83,6.3,1.86-2.24.43-4.53-.32-6.64-.93-3.17-1.01-6.28-1.89-9.56-1.97-3.27.04-6.66.71-9.96.54-6.43-.03-13.54-.17-20.01-.25-2.21.01-4.46-.13-6.65.25h0Z"/>
        </g>
        <path class="cls-3" d="M269.07,144.35c4.49-2.57,8.94-4.9,13.57-7.15,3.07-1.49,6.64-2.05,10.05-1.92.86,0,1.63.42,2.49.33,2.51-.34,5.1-1.06,7.62-.28,1.69.77,2.06,2.78,2.54,4.37.16.5.21,1.1.51,1.48.16.1.16.27.16.35-2.13,4.27-12.72,5.89-17.17,6.35-6.67.59-14.19.76-19.77-3.54h0ZM269.14,144.36c5.76,3.74,13.04,3.39,19.61,2.77,4.98-.61,10.11-1.35,14.59-3.72.81-.49,1.8-1.05,2.2-1.89,0-.02,0,.02.06.07-.13-.09-.3-.34-.34-.51-.38-1.23-.53-2.5-1.03-3.67-1.19-3.53-6.3-1.83-9.02-1.47-.22.02-.42.07-.69.03-3.09-.69-6.29.15-9.3.91-5.45,2.14-10.72,5.15-16.08,7.49h0Z"/>
        <path class="cls-3" d="M278.13,108.28c-.27,3.16-.45,6.62-2.37,9.27.62-3.13.77-6.43,2.37-9.27h0Z"/>
      </g>
      <g>
        <path class="cls-24" d="M288.81,47.36S250.83-1.7,214.04,30.35s-42.33,53.8-26.51,80.7,22.95,45.49,24.53,52.22-.79,29.98.4,32.4,9.1,21.41,24.53,21.41,17.8,3.16,30.07-2.77,20.18-10.68,24.53-16.22,5.54-20.18,5.54-21.36,6.33-3.56,7.12-7.91,2.37-23.74,3.96-28.09,3.16-17.54,3.96-22.02-7.91-21.5-7.52-24.66,1.98-9.49,2.37-12.66-6.73-32.84-18.2-34.02Z"/>
        <path class="cls-6" d="M307.03,141.61c-1.79.91-2.42.68-5.61-1.07s-3.44-.64-6.47-.58-2.68.48-6.97.93-16.33,2.3-16.33,2.3l2.22-1.18c2.22-1.18,6.98-3.37,9.48-4.74s8.05-2.13,10.24-1.67,1.26.34,2.57-.12,5.42-1.12,7.13.35c1.7,1.47,1.56,4,2.07,5.08s1.69.71,1.69.71h0Z"/>
        <path class="cls-12" d="M305.11,142.14c-1.16,2.96-8.14,4.43-18.81,5.66-10.67,1.22-17.08-3.37-17.08-3.37,0,0,2.53-.29,5.29-.77s9.95-2.18,13.68-2.25,6.97-1.01,10.66-1.3,6.26,2.05,6.26,2.05h0Z"/>
        <path class="cls-9" d="M305.26,142.13h0c-.81.14-1.6-.29-2.34-.54-2.17-.87-4.33-1.72-6.67-1.29-5.12.58-10.11,2.03-15.25,2.54-.82.08-2.66.34-3.52.45-3.14.45-6.29.92-9.47,1.25,3.79-1.28,7.66-2.31,11.59-3.06,2.34-.38,4.67-.76,7.02-1.26,3.13-.57,6.28-1.18,9.55-1.28,1.65-.12,3.44.25,4.85,1.03,1.09.53,2.09,1.18,3.14,1.77.35.19.7.38,1.1.37h0Z"/>
        <g class="cls-39">
          <path class="cls-13" d="M298.93,150.28h0c-4.1.92-8.44.93-12.59,1.54,1.82-1.19,4.06-1.55,6.18-1.78,2.14-.19,4.29-.18,6.41.25h0Z"/>
        </g>
        <g>
          <path class="cls-19" d="M281.2,97.21c-7.26,6.59-23.36,3.09-23.36,3.09,0,0,6.56-5.45,13.21-8.07,6.65-2.62,10.15,4.98,10.15,4.98h0Z"/>
          <circle class="cls-11" cx="273.49" cy="96.32" r="4.08"/>
          <circle class="cls-7" cx="273.46" cy="96.01" r="1.01"/>
          <circle class="cls-19" cx="274.04" cy="95.06" r=".48"/>
          <path class="cls-20" d="M253.09,105.12l4.53-2.91c4.52-2.91,26.41-4.02,26.41-4.02,2.82,8.29-30.94,6.93-30.94,6.93Z"/>
          <path class="cls-20" d="M284.03,98.19c-11.83-13.29-29.46,5.98-29.46,5.98,0,0,1.13-3.69,2.84-6.05,1.55-2.13,13.24-10.03,19.42-8.57,7.18,1.69,7.19,8.64,7.19,8.64h0Z"/>
          <path class="cls-15" d="M270.77,81.27c-14.77,3.14-20.87,9.18-19.93,9.07s2.52-1.41,5.64-2.02,3.93-.36,8.29-.68c4.36-.32,8.75.44,15.69-.91,5.32-1.03,3.61-.15,6.16-1.99,2.37-1.71.52-4.54-4.16-5.49s-9.74,1.59-11.7,2.01h0Z"/>
        </g>
        <path class="cls-19" d="M299.64,88.44c-.58.08-5.31.74-5.87,1.6s.89,2.71,1.41,2.68,4.24-.02,6.46-.59-.36-3.9-2-3.68h0Z"/>
        <path class="cls-14" d="M301.86,90.7c.55.75-.69,1.26-.98,1.37s1.61-.06,1.88-.13,1.06-.35,1.06-.35l-2.16-1.7s-.34.06.21.82Z"/>
        <path class="cls-15" d="M295.28,81.52c-.93.87-1.87,1.73-2.33,2.07-1.05.78-2.33,3.24-2.42,3.84s.84,1.95.84,1.95c0,0,1.95-1.81,4.16-3.13s4.27-1.54,5.7-1.9,2.47-.41,5.25-.7,1.74-.65,2.01-2.19-.61-3.41-2.09-4.11c-.78-.37-2.92.1-4.9.66-2.33.66-4.46,1.85-6.23,3.5h0Z"/>
        <circle class="cls-11" cx="298.17" cy="89.98" r="2.98"/>
        <circle class="cls-7" cx="298.26" cy="90.11" r=".69"/>
        <circle class="cls-19" cx="297.61" cy="89.57" r=".33"/>
        <path class="cls-20" d="M304.32,91.75s.3-.44-5.15-2.95c-1.36-.63-7.11,2.42-7.11,2.42l1-1.05s.07-.08.11-.13c6.59-8.61,11.16,1.7,11.16,1.7h0Z"/>
        <path class="cls-20" d="M293.55,92.66c.5-.29,10.55-1.2,10.55-1.2-5.32,3.75-11.05,1.49-10.55,1.2Z"/>
        <path class="cls-3" d="M297.55,96.45c4.31,5.47,8.83,11.03,11.22,17.66.71,4.83,2.94,10.33-4.28,10.14-2.62.25-5.21-1.11-7.77-.41,2.45-1,5.19.15,7.74-.22,5.13-.16,4.49-2.71,3.79-6.74-.26-2.63-1.21-4.85-2.5-7.17-2.47-4.57-5.37-8.91-8.2-13.27h0Z"/>
        <path class="cls-3" d="M287.17,115.67c-.93.49-1.03,1.89-1.25,2.82-.27,1.94-.27,4.37,1.78,5.3.97.54,1.92,1.12,2.84,1.78-1.09-.29-2.14-.66-3.17-1.07-3.16-1.03-2.96-5.4-1.51-7.76.31-.45.71-1.08,1.32-1.05h0Z"/>
        <path class="cls-1" d="M296.06,126.95s-1.62.12-2.01.42-1.41,2.58-1.41,3.08.78,2.45,1.14,3.11,1.2.36,2.95,0,1.08-1.26,1.26-2.88-.84-3.36-1.56-3.72h-.37Z"/>
        <path class="cls-3" d="M217.19,132.41c3.37,8.23,6.87,16.83,12.73,23.58,1.11,1.16,2.29,2.39,3.22,3.68,5.03,7.01,4.4,13.28,14.96,12.94,7.5.28,14.99,1.39,22.27,3.18,4.09.79,8.06,2.89,12.28,2.36,2.06-.26,4.22-.75,6.33-.86,2.12-.21,4.27-.05,6.35-.57-2.03.73-4.21.76-6.29,1.1-3.21.37-6.27,1.77-9.56,1.48-3.24-.32-6.27-1.42-9.44-1.97-6.23-1.28-12.5-2.2-18.84-2.58-2.11-.16-4.3-.12-6.42-.3-8.1-.55-9.33-8.28-13.05-13.76-.86-1.25-1.98-2.47-2.99-3.61-5.81-7.15-8.89-15.99-11.53-24.66h0Z"/>
        <g>
          <path class="cls-2" d="M207.32,101.7c-.4-.14-10.09-9.5-15.33-4.92s-4.15,16.84-3.26,18.92,4.75,10.29,6.92,11.08,7.42,1.88,12.66,3.16,3.07,2.08,6.92,1.78l3.86-.3"/>
          <path class="cls-3" d="M207.32,101.7c-4.03-2.78-11.52-8.67-15.63-3.49-1.68,2.31-2.4,5.34-2.62,8.33-.2,2.85-.22,6.07.58,8.79,1.56,3.42,3.16,6.98,5.49,9.91.45.57.91.79,1.55.97,4.46,1.38,9,2.29,13.49,3.76,1.47.45,2.61,1.73,4.23,1.54,1.54-.03,3.11-.07,4.67-.08-1.55.22-3.08.45-4.65.61-1.69.36-3-.78-4.56-1.14-4.35-1.09-9.36-1.8-13.7-3.02-.24-.07-.67-.19-.9-.29-.57-.26-1.12-.71-1.47-1.11-2.65-3.07-4.29-6.75-5.99-10.36-1.53-5.75-1.13-14.09,2.67-18.89,5.12-5.8,12.72.58,16.83,4.48h0Z"/>
        </g>
        <path class="cls-3" d="M206.79,110.92c-1.71-2.9-3.25-6.06-5.68-8.4-.6-.55-1.28-1.04-1.99-1.23-2.33-.38-4.35,2.01-5.45,3.86-1.66,2.89-1.88,6.42-.44,9.45,1.3,3.14,3.07,6.09,5.32,8.66-2.88-2.59-5.04-5.96-6.55-9.54-1.18-2.94-.72-6.33.8-9.06,6.49-9.99,11.19-.38,13.99,6.27h0Z"/>
        <path class="cls-3" d="M197.62,112.9c1.68,6.17,2.42,6.42,8.25,8.5,1.33.49,2.72,1.33,3.86,2.1.84.53,2.22.53,3.15.41-.02.01-.06.1-.05.08,0-.3,0-.73-.15-1.03-.78-1.39-2.16-2.58-2.53-4.22-.04-1.29-.8-2.55-.4-3.86.15-.39.49-.65.66-.9.38-.56.2-1.37-.18-1.96.47.52.8,1.35.42,2.09-.2.37-.46.59-.53.9-.2,1.04.45,2,.59,3.08.07.71.39,1.25.8,1.83.71,1.1,1.92,1.96,2.23,3.33.03.47.23,1.11-.26,1.45-.34.22-.55.2-.76.24-1.19.05-2.36.1-3.46-.55-2.39-1.79-5.07-2.52-7.72-3.85-2.89-1.3-3.48-4.8-3.88-7.61h0Z"/>
        <path class="cls-3" d="M196.04,107.62c-.19,2.5-.87,5.06-1.43,7.47-.16.82-.44,1.61-.33,2.46-.53-.72-.47-1.72-.45-2.57.2-2.58.93-5.09,2.21-7.36h0Z"/>
        <path class="cls-8" d="M239.79,24.02c-6.33.2-7.71,2.57-7.71,4.35s4.35,2.77,7.71,2.77,6.89-3.76,11.66-2.18-2.14-4.55-3.83-4.95-7.83,0-7.83,0Z"/>
      </g>
      <path class="cls-21" d="M143.89,128.24s-9.84,4.68-9.67,7.4,19.18,25.44,19.18,25.44c2.79-.73,3.86-27.12,3.86-27.12"/>
      <path class="cls-35" d="M157.51,131.78s-3.11,28.99-4.25,30.24"/>
      <path class="cls-26" d="M93.37,79.43c-5.06,7.91-.24,22.6-1.33,23.83s2.6,1.57,4.71,1.8,7.25,0,7.25,0c0,0,.92-16.92,1.45-19.82s-2.77-5.54-3.76-5.8-8.33,0-8.33,0Z"/>
      <g>
        <path class="cls-32" d="M168.95,57.93h52.28c10.38,0,15.76-3.34,20.76-1.54s8.46,11.41,8.07,19.87-10.76,64.58-6.92,70.73-26.14,5.65-29.6,5.32-34.6-4.94-40.75-5.32c-6.15-.38-8.46-17.15-9.23-25.1s3.46-61.53,5.38-63.96Z"/>
        <path class="cls-17" d="M177.51,64.52c1.03,1.79,2.48,2.38,3.74,3.88,1.34,1.81.22,4.17-.43,5.91-.69,2.65,1.44,4.33,3.3,5.76.41.34.89,1.05.8,1.71-.05.64-.38,1.06-.69,1.44l-.18-.08c0-.87.05-1.5-.83-1.79-.71-.29-1.76-.66-2.6-1.43-.85-.78-1.33-1.86-1.54-2.93-.28-1.06.07-2.38.76-3.18.62-.78,1.25-1.46,1.28-2.33-.08-1.97-2.1-2.26-3.12-3.95-.59-.9-.89-1.98-.7-2.98l.2-.04h0Z"/>
        <path class="cls-17" d="M190.41,72.72c.76.89.77,2.11,1.06,3.18.57,1.98.39,4.08,1.57,5.81.66.86,1.47,1.47,2.38,2.2.21.21.52.46.62,1.02.09,1.14-.87,1.85-1.28,2.55-.22-.12.35,1.17.61,2.18.26,1.04.55,2.18.39,3.47-.1,1.33-1.2,2.04-1.99,2.91,0,0-.18-.08-.18-.08.05-.57.29-1.14.48-1.62.18-.49.2-.82.13-1.25-.31-1.74-1.36-3.51-1.46-5.43-.05-1.05,1.13-1.89,1.69-2.43.16-.15.23-.24.26-.21.06.02.02-.19-.09-.39-1.1-1.9-3.2-3.15-4.11-5.24-.81-2.09-.65-4.86-.07-6.66h0Z"/>
        <path class="cls-17" d="M202.48,70.45c-.08.5-.32,1.01-.24,1.27.45,1.02,1.58,1.81,2.24,2.83.53.76.96,1.66,1.56,2.38.28.39.67.66.9,1.26.15.59.17,1,.3,1.45.24.87.63,1.74.6,2.89l.12.45c.44,1.64,1.73,5.65-.87,5.99-.15.27-.15.81-.21,1.28,0,0-.19.06-.19.06-.51-.66-1.04-1.95-.01-2.54.29-.18.26-.24.22-.25-.21-1.16-.79-2.87-.9-4.17-.12-1.4.2-3.45.29-4.99-.45-1.24-2.05-1.84-3.03-2.69-.74-.62-1.34-1.39-1.82-2.34-.25-.55-.46-1.2-.24-1.83.28-.67.73-.87,1.12-1.17l.17.1h0Z"/>
        <path class="cls-17" d="M218.07,86.28c1.44,1.68,3.37,3.44,4.12,5.95.66,2.36-.27,4.07-2.68,4.67-.94.27-2.88.28-2.99-1.13.4-1.68,2.72-.51,3.66-.11,1.23.43,2.41,1.87,2.77,3.04.96,1.97,2.37,4.96,1.07,7.21,0,0-.19-.05-.19-.05-.05-1.22-.45-2.24-.98-3.22-.8-1.33-1.88-3.02-2.52-4.4-.58-.78-1.95-1.46-2.8-1.88,0-.02.07-.01.2-.16.1-.11.15-.36.08-.47-.11-.12.02.12.12.18,1.08.87,3.73.02,3.29-1.64-.71-2.09-2.08-4.01-2.92-6.13-.22-.63-.55-1.17-.44-1.9,0,0,.2.04.2.04h0Z"/>
        <path class="cls-17" d="M204.82,100.46c1.98,2.78,4.27,5.71,4.9,9.2.28,1.28-.04,3.56-1.71,3.9-2.89.41-5.81-.47-8.53-1.36-.43-.21-.98-.43-1.01-1.09-.03-.46.43-.88.86-.89,5.41.05,7.56,4.83,8.88,9.24,1.32,1.43.38,3.67-.36,5.16,0,0-.19-.06-.19-.06.06-1.25.42-2.83-.31-3.85.08.12-.48-.4-.53-.56-1.83-3.32-3.23-7.61-7.32-8.29.53-.08.79-.81.46-1.18,1.39,1.16,7.15,3.84,8.4,1.43.17-.58,0-1.35-.24-2.08-.71-2.29-1.84-4.67-2.73-6.99-.29-.82-.65-1.6-.75-2.54l.2-.03h0Z"/>
        <path class="cls-17" d="M186.53,99.07c2.32,2.35,3.92,5.25,5.5,8.09,1.05,1.95,2.4,4.1,1.9,6.5-.96,4.34-4.32,2.6-6.92.95-.48-.37-.97-.59-1.25-1.19-.16-.44.28-.86.7-.77,5.63.72,7.85,4.75,7.78,10.08,0,.89,0,1.18.26,1.86.06.27.1.57-.11.94-.19.4-.72.58-.99.6-.57.04-.87.04-1.32.59-1.64,1.99-3.85,3.86-4.56,6.4,0,0-.2,0-.2,0-.14-2.27,1.29-4.31,2.44-6.15.71-.98,1.29-2.3,2.66-2.67.24-.07.48-.11.69-.15.04,0,.04-.03-.11.04-.32.13-.53.64-.45.9-.02-.05,0-.01-.06-.12l-.13-.31c-.56-2.67.01-5.25-1.37-7.64-.87-1.56-2.94-2.67-4.64-3.3.25.02.53-.31.44-.58.74,1.07,4.7,4.11,5.73,1.81.58-1.45.26-2.79-.54-4.15-1.85-3.16-4.04-8.2-5.61-11.61,0,0,.16-.12.16-.12h0Z"/>
        <path class="cls-17" d="M177.51,93.53c2.13,2.74,3.03,6.15,2.9,9.56.15,1.98,1.16,4.5-.49,6.21-.26.34-.97.87-1.18,1.1.01,0,0,.04-.05.28l-.22,1.53c-.29,2.2-1.36,4.09-.96,6.32,0,0-.17.1-.17.1-.89-.84-1.14-2.21-1.17-3.36.05-2.01.03-3.76.7-5.65.37-.84,1.26-1.12,1.84-1.63,1.4-1.09,1.42-3.16,1.07-4.83-1.06-3.25-2.45-5.99-2.45-9.59,0,0,.19-.07.19-.07h0Z"/>
        <path class="cls-17" d="M233.06,92.23c.49,1.99.93,4.3,1.88,5.97.48.88,1.71,1.48,2.23,2.53.31.67.13,1.36-.06,1.92-.71,2.11-2.06,4.07-3,6-.74,2.51-.63,5.31-1.05,7.95,0,0-.19.06-.19.06-1.01-2.25-1.35-4.46-1.22-6.95.29-2.53,2.26-4.28,3.86-6.02.61-.67,1.57-1.76,1.09-2.66-.72-.89-2.05-.8-2.95-1.76-1.63-1.94-1.66-4.79-.79-7.07,0,0,.2.03.2.03h0Z"/>
        <path class="cls-17" d="M228.64,66.27c1.46,1.2,2.91,2.61,3.89,4.28.66,1.33,1.16,2.74,2.11,3.9.34.59,1.11,1.18.9,2.08-.11.35-.39.52-.53.62-.61.37-.82.55-1.08,1.18-.45,1.51-.64,3.54-.82,5.2,0,.86-.15,1.87.28,2.64,0,0-.09.18-.09.18-2.9-1.44-2.63-8.86.35-10.21.29-.13.62-.2.76-.22.06-.01.03.03-.01.14,0,.1.04.08.04,0,0-.34-.16-.83-.38-1.24-.62-1.35-1.84-2.25-2.87-3.27-.99-1.08-1.74-2.37-2.34-3.72-.18-.48-.39-.91-.41-1.55h.2Z"/>
        <path class="cls-17" d="M217.27,71.78c.68.23,1.23.58,1.63.63.21.04.24,0,.55-.02.37-.06,1.09.09,1.37.42.68.67.68,1.4.99,1.98.27.58.65,1.09,1.1,1.58,1.78,1.94,2.86,4.26,2.84,6.97,0,0-.18.09-.18.09-1.65-1.28-2.6-2.84-3.19-4.72-.48-1.14-.35-2.58-1.12-3.59-.36-.48-1.02-.85-1.36-.92-.46-.04-1.19,0-1.68-.39-.72-.53-.98-1.18-1.1-1.9,0,0,.16-.12.16-.12h0Z"/>
        <path class="cls-17" d="M221.43,130.76c2.75-.74,6.48,1.72,5.06,4.92-.06.2-.37.61-.6.71-.62.34-1.25.19-1.82.05-1.53-.47-2.93-1-4.47-1.37-.19-.06-.57-.12-.74-.23,0,0-.05-.04-.05-.04-.17.62-.05-1.12.29-.9.06,0,.13,0,.18,0,3.76.81,7.99,2.41,9.82,6.08.32.7.12,1.39-.19,2.16-.14.53-.22,1.13-.23,1.74,0,0-.19.06-.19.06-.5-.84-.71-1.91-.57-2.9,0,0-.22-.36-.22-.36-2.13-2.29-5.75-4.08-8.49-5.69-.18-.1-.18-.07,0-.08.33.22.46-1.51.29-.89l-.04-.03c1.34.86,3.71,1.74,5.48,1.19.09-.04.14-.09.11-.1-.03-.03-.17.16-.1-.02.18-.81,0-1.67-.66-2.39-.66-.73-1.71-1.23-2.86-1.73,0,0,.02-.2.02-.2h0Z"/>
        <path class="cls-17" d="M204.8,132.61c-.49,1.17-.33,1.93.26,2.67.93,1.18,2.27,2.13,3.34,3.37.87.94,1.25,2.41.6,3.57-.78,1.46-2,2.81-3.66,3.24-.74.22-1.68-.36-1.54-1.27.05-.32.19-.56.33-.8,1.44-1.8,3.14-3.16,5.33-4.08.59-.21,1.35-.37,2.04-.15.68.22,1.13.63,1.53,1.06l-.1.17c-2.27-.88-3.56,1.07-5.16,2.39-.67.62-1.47,1.16-2.1,1.8-.02.02.03-.06,0-.11.1-.35-.33-.85-.61-.82.64-.02,1.54-.42,2.2-.77.83-.45,1.72-1.38,1.41-2.38-.16-.45-.54-.79-.98-1.03-.97-.43-2.15-1.02-2.9-1.89-.88-.95-1.68-2.23-1.32-3.61.18-.7.69-1.19,1.17-1.49,0,0,.17.11.17.11h0Z"/>
      </g>
      <path class="cls-26" d="M37.36,78.49c-5.06,7.91-.24,22.6-1.33,23.83s2.6,1.57,4.71,1.8,7.25,0,7.25,0c0,0,.92-16.92,1.45-19.82s-2.77-5.54-3.76-5.8-8.33,0-8.33,0Z"/>
    </g>
    <g>
      <path class="cls-32" d="M574.36,403.35c-10.89,16.66-17.63,7.27-16.96,16.96s4.19,11.73,9.19,14.88,24.32,15.66,25.49,21.9,6.4,15.54,13.78,15.52c7.38-.02,22.79-13.78,27.03-19.4s14.18-21.81,14.18-21.81c0,0-42.16-41.56-52.16-40.45s-7.96-6.85-20.55,12.4Z"/>
      <path class="cls-17" d="M572.06,419.55c2.03,2.94,5.19,4.28,8.24,5.82.32.19.75.47,1,1.02.34.91.06,1.18.36,1.92.18.55.53,1.1.86,1.69-.94-.4-1.9-1.12-2.29-2.16-.28-.72-.11-.67-.74-.92-3.37-.98-7.34-3.49-7.43-7.37h0Z"/>
      <path class="cls-17" d="M580.5,414.19c2.98-1.28,6.35-1.99,9.56-1.19,1.16.18,2.16,1.32,1.76,2.57-.27.91-1.01,1.54-1.86,1.88-.31.09-.58.24-1.12.06-.44-.14-.55-.8-.34-1.16.61-1.08,2.02-.78,2.97-.69,2.18.41,4.2,1.18,6.12,2.19l-.03.09c-2.6-.46-5.13-1.3-7.7-1.32-.3.04-.45.05-.5.2,0-.04-.08-.18-.13-.18.71.05,1.75-.58,2.08-1.27.84-2.62-2.88-2.21-4.45-1.9-1.49.11-5.27.91-6.36.71h0Z"/>
      <path class="cls-17" d="M601.82,432.92c1.7,2.35,4.44,3.39,7.08,4.32,1.92.85,4.77,1.14,5.59,3.49.2.89-.14,1.7-.5,2.34-2.02,3.01-4.27,5.89-7.21,8-2.5,1,1.07-4.72,1.19-5.48.5-1.31.81-2.68,1-4.07.19-1.39.17-2.78.27-4.25.06-.59.15-1.35.7-1.81.96-.69,2.24-.01,3.05.3.97.42,1.91,1,2.87,1.41,5.58,2.41,11.94-.12,16.59-3.5,0,0,.07.07.07.07-2.09,1.98-4.61,3.47-7.34,4.47-2.42.83-5.08,1.17-7.62.64-.61-.18-1.56-.4-2.12-.7-.95-.41-1.97-1.01-2.88-1.44-.6-.28-1.3-.57-1.78-.55-.22.02-.28.07-.4.31-.57,3.11-.36,6.33-1.9,9.33-.72,1.65-1.88,3.05-2.26,4.78-.03.16,0,.31.04.31,1.79-.26,7.91-8.16,7.38-9.96-.81-1.8-3.29-2.17-5.01-2.98-2.49-1.02-5.85-2.49-6.81-5.04h0Z"/>
      <path class="cls-17" d="M599,424.97c2.21.28,4.4.19,6.62.31,1.94.19,3.9.31,5.85.13.79-.1,1.6,0,1.39,1.06-.04.41-.29.95,0,1.21,1.04.53,2.44.1,3.69.07,2.23-.1,4.4-.67,6.65-.54-3.06,1.02-6.59,2.06-10.03,1.58-.31-.09-.67-.17-.96-.51-.3-.32-.35-.82-.27-1.13.07-.43.27-.76.31-1.12,0-.04.01-.05-.05-.09-2.15-.38-4.42.03-6.59.17-2.23.05-4.58-.09-6.64-1.05,0,0,.03-.09.03-.09h0Z"/>
      <path class="cls-17" d="M590.69,430.72c.67.41,1.49.77,1.78,1.61.05.2-.06.55-.32.7-.21.14-.46.12-.63.11.5.1.93-.57.62-1.01,0,0-.02-.03-.02-.03-.05-.06-.02-.04-.02-.04,1.09.64,2.17,1.34,3.09,2.23.76.75,1.41,1.67,2.18,2.41,1.58,1.58,3.69,2.46,4.89,4.5,1.58,2.4.4,5.12-2.14,6.16,0-.02-.11-.1-.08.1.02.16.1.39.2.61.2.45.48.92.73,1.42l-.14.14c-1.07-.6-2.75-1.57-2.05-3.1.25-.45.53-.66.73-.85,2.48-1.87.98-4.1-.41-6.2-1.13-1.88-3.04-2.92-4.93-3.88-1.17-.74-2.25-1.67-3.15-2.72-.23-.32-.11-.89.32-1.03.16-.06.31-.05.44,0-.01.02-.19.02-.29.1-.22.12-.32.45-.24.59-.08-.49-.52-1.09-.72-1.68,0,0,.15-.14.15-.14h0Z"/>
      <path class="cls-17" d="M618.03,448.18c2.11-.82,4.26-1.54,6.54-1.67.16-.02.08-.02,0,.04-.24.15-.23.61.03.73-.26-.13-.86-.24-1.18-.35-.04-.01-.1-.04-.14-.06.18.08-.41-.05,0-.66.32-.13.2-.04.25-.07.98.16,1.9.4,2.84.72-.96.1-1.94.08-2.86.07.04-.02-.1.06.21-.06.4-.61-.18-.74,0-.65l-.04-.02s-.06-.03-.06-.03c.04,0,.19.02.24.03.44.09.82.05,1.28.32.31.21.24.74-.11.87-.23.1-.5.09-.72.12-2.08.24-4.16.76-6.29.68h0Z"/>
      <path class="cls-17" d="M604.95,406.15c-.38,2.87,2.34,4.49,4.92,4.45,1.87.09,3.71-.54,5.57.12.95.31,1.78.95,2.41,1.68.6.73,1.16,1.54,1.41,2.52.26,1,.02,1.87.37,2.71l-.09.05c-.64-.67-.66-1.74-1.03-2.51-.73-1.41-1.95-2.88-3.41-3.57-2.65-1.15-5.36-.34-8.05-.73-1.98-.44-3.22-2.97-2.19-4.74,0,0,.09.03.09.03h0Z"/>
      <path class="cls-17" d="M600.22,415.26c.26.23.22.68.3.96.09.25.4.36.7.45,2.65.6,5.45.4,8.09,1.27.94.25,3.16,2.19,1.33,2.66-.28.05-.52.04-.78.03.03,0,.07-.05.1-.06.12-.11.09-.32-.04-.39,0,0-.01,0,0,0l.1.04c.62.25,1.29.44,1.92.71-.74-.06-1.46-.13-2.2-.27-.12-.03-.24-.12-.25-.27-.02-.14.13-.28.24-.29.28-.06.5-.07.74-.15.14-.03.22-.14.14-.06,0,.11-.03-.02-.13-.1-.45-.47-.9-.81-1.49-.97-2.59-.71-5.44-.62-7.96-1.71-.3-.17-.71-.39-.78-.84-.03-.4.14-.69-.04-1.02h0Z"/>
    </g>
    <g>
      <path class="cls-32" d="M229.99,14.12c-10.89,16.66-17.63,7.27-16.96,16.96s4.19,11.73,9.19,14.88,24.32,15.66,25.49,21.9,6.4,15.54,13.78,15.52c7.38-.02,22.79-13.78,27.03-19.4s14.18-21.81,14.18-21.81c0,0-42.16-41.56-52.16-40.45s-7.96-6.85-20.55,12.4Z"/>
      <path class="cls-17" d="M227.68,30.32c2.03,2.94,5.19,4.28,8.24,5.82.32.19.75.47,1,1.02.34.91.06,1.18.36,1.92.18.55.53,1.1.86,1.69-.94-.4-1.9-1.12-2.29-2.16-.28-.72-.11-.67-.74-.92-3.37-.98-7.34-3.49-7.43-7.37h0Z"/>
      <path class="cls-17" d="M236.12,24.95c2.98-1.28,6.35-1.99,9.56-1.19,1.16.18,2.16,1.32,1.76,2.57-.27.91-1.01,1.54-1.86,1.88-.31.09-.58.24-1.12.06-.44-.14-.55-.8-.34-1.16.61-1.08,2.02-.78,2.97-.69,2.18.41,4.2,1.18,6.12,2.19l-.03.09c-2.6-.46-5.13-1.3-7.7-1.32-.3.04-.45.05-.5.2,0-.04-.08-.18-.13-.18.71.05,1.75-.58,2.08-1.27.84-2.62-2.88-2.21-4.45-1.9-1.49.11-5.27.91-6.36.71h0Z"/>
      <path class="cls-17" d="M257.45,43.69c1.7,2.35,4.44,3.39,7.08,4.32,1.92.85,4.77,1.14,5.59,3.49.2.89-.14,1.7-.5,2.34-2.02,3.01-4.27,5.89-7.21,8-2.5,1,1.07-4.72,1.19-5.48.5-1.31.81-2.68,1-4.07.19-1.39.17-2.78.27-4.25.06-.59.15-1.35.7-1.81.96-.69,2.24-.01,3.05.3.97.42,1.91,1,2.87,1.41,5.58,2.41,11.94-.12,16.59-3.5,0,0,.07.07.07.07-2.09,1.98-4.61,3.47-7.34,4.47-2.42.83-5.08,1.17-7.62.64-.61-.18-1.56-.4-2.12-.7-.95-.41-1.97-1.01-2.88-1.44-.6-.28-1.3-.57-1.78-.55-.22.02-.28.07-.4.31-.57,3.11-.36,6.33-1.9,9.33-.72,1.65-1.88,3.05-2.26,4.78-.03.16,0,.31.04.31,1.79-.26,7.91-8.16,7.38-9.96-.81-1.8-3.29-2.17-5.01-2.98-2.49-1.02-5.85-2.49-6.81-5.04h0Z"/>
      <path class="cls-17" d="M254.62,35.73c2.21.28,4.4.19,6.62.31,1.94.19,3.9.31,5.85.13.79-.1,1.6,0,1.39,1.06-.04.41-.29.95,0,1.21,1.04.53,2.44.1,3.69.07,2.23-.1,4.4-.67,6.65-.54-3.06,1.02-6.59,2.06-10.03,1.58-.31-.09-.67-.17-.96-.51-.3-.32-.35-.82-.27-1.13.07-.43.27-.76.31-1.12,0-.04.01-.05-.05-.09-2.15-.38-4.42.03-6.59.17-2.23.05-4.58-.09-6.64-1.05,0,0,.03-.09.03-.09h0Z"/>
      <path class="cls-17" d="M246.32,41.48c.67.41,1.49.77,1.78,1.61.05.2-.06.55-.32.7-.21.14-.46.12-.63.11.5.1.93-.57.62-1.01,0,0-.02-.03-.02-.03-.05-.06-.02-.04-.02-.04,1.09.64,2.17,1.34,3.09,2.23.76.75,1.41,1.67,2.18,2.41,1.58,1.58,3.69,2.46,4.89,4.5,1.58,2.4.4,5.12-2.14,6.16,0-.02-.11-.1-.08.1.02.16.1.39.2.61.2.45.48.92.73,1.42l-.14.14c-1.07-.6-2.75-1.57-2.05-3.1.25-.45.53-.66.73-.85,2.48-1.87.98-4.1-.41-6.2-1.13-1.88-3.04-2.92-4.93-3.88-1.17-.74-2.25-1.67-3.15-2.72-.23-.32-.11-.89.32-1.03.16-.06.31-.05.44,0-.01.02-.19.02-.29.1-.22.12-.32.45-.24.59-.08-.49-.52-1.09-.72-1.68,0,0,.15-.14.15-.14h0Z"/>
      <path class="cls-17" d="M273.65,58.94c2.11-.82,4.26-1.54,6.54-1.67.16-.02.08-.02,0,.04-.24.15-.23.61.03.73-.26-.13-.86-.24-1.18-.35-.04-.01-.1-.04-.14-.06.18.08-.41-.05,0-.66.32-.13.2-.04.25-.07.98.16,1.9.4,2.84.72-.96.1-1.94.08-2.86.07.04-.02-.1.06.21-.06.4-.61-.18-.74,0-.65l-.04-.02s-.06-.03-.06-.03c.04,0,.19.02.24.03.44.09.82.05,1.28.32.31.21.24.74-.11.87-.23.1-.5.09-.72.12-2.08.24-4.16.76-6.29.68h0Z"/>
      <path class="cls-17" d="M260.58,16.91c-.38,2.87,2.34,4.49,4.92,4.45,1.87.09,3.71-.54,5.57.12.95.31,1.78.95,2.41,1.68.6.73,1.16,1.54,1.41,2.52.26,1,.02,1.87.37,2.71l-.09.05c-.64-.67-.66-1.74-1.03-2.51-.73-1.41-1.95-2.88-3.41-3.57-2.65-1.15-5.36-.34-8.05-.73-1.98-.44-3.22-2.97-2.19-4.74,0,0,.09.03.09.03h0Z"/>
      <path class="cls-17" d="M255.84,26.02c.26.23.22.68.3.96.09.25.4.36.7.45,2.65.6,5.45.4,8.09,1.27.94.25,3.16,2.19,1.33,2.66-.28.05-.52.04-.78.03.03,0,.07-.05.1-.06.12-.11.09-.32-.04-.39,0,0-.01,0,0,0l.1.04c.62.25,1.29.44,1.92.71-.74-.06-1.46-.13-2.2-.27-.12-.03-.24-.12-.25-.27-.02-.14.13-.28.24-.29.28-.06.5-.07.74-.15.14-.03.22-.14.14-.06,0,.11-.03-.02-.13-.1-.45-.47-.9-.81-1.49-.97-2.59-.71-5.44-.62-7.96-1.71-.3-.17-.71-.39-.78-.84-.03-.4.14-.69-.04-1.02h0Z"/>
    </g>
    <g>
      <path class="cls-32" d="M529.87,475.67c-16.66-10.89-7.27-17.63-16.96-16.96-9.69.67-11.73,4.19-14.88,9.19s-15.66,24.32-21.9,25.49-15.54,6.4-15.52,13.78c.02,7.38,13.78,22.79,19.4,27.03s21.81,14.18,21.81,14.18c0,0,41.56-42.16,40.45-52.16s6.85-7.96-12.4-20.55Z"/>
      <path class="cls-17" d="M513.67,473.36c-2.94,2.03-4.28,5.19-5.82,8.24-.19.32-.47.75-1.02,1-.91.34-1.18.06-1.92.36-.55.18-1.1.53-1.69.86.4-.94,1.12-1.9,2.16-2.29.72-.28.67-.11.92-.74.98-3.37,3.49-7.34,7.37-7.43h0Z"/>
      <path class="cls-17" d="M519.04,481.8c1.28,2.98,1.99,6.35,1.19,9.56-.18,1.16-1.32,2.16-2.57,1.76-.91-.27-1.54-1.01-1.88-1.86-.09-.31-.24-.58-.06-1.12.14-.44.8-.55,1.16-.34,1.08.61.78,2.02.69,2.97-.41,2.18-1.18,4.2-2.19,6.12,0,0-.09-.03-.09-.03.46-2.6,1.3-5.13,1.32-7.7-.04-.3-.05-.45-.2-.5.04,0,.18-.08.18-.13-.05.71.58,1.75,1.27,2.08,2.62.84,2.21-2.88,1.9-4.45-.11-1.49-.91-5.27-.71-6.36h0Z"/>
      <path class="cls-17" d="M500.3,503.13c-2.35,1.7-3.39,4.44-4.32,7.08-.85,1.92-1.14,4.77-3.49,5.59-.89.2-1.7-.14-2.34-.5-3.01-2.02-5.89-4.27-8-7.21-1-2.5,4.72,1.07,5.48,1.19,1.31.5,2.68.81,4.07,1,1.39.19,2.78.17,4.25.27.59.06,1.35.15,1.81.7.69.96.01,2.24-.3,3.05-.42.97-1,1.91-1.41,2.87-2.41,5.58.12,11.94,3.5,16.59,0,0-.07.07-.07.07-1.98-2.09-3.47-4.61-4.47-7.34-.83-2.42-1.17-5.08-.64-7.62.18-.61.4-1.56.7-2.12.41-.95,1.01-1.97,1.44-2.88.28-.6.57-1.3.55-1.78-.02-.22-.07-.28-.31-.4-3.11-.57-6.33-.36-9.33-1.9-1.65-.72-3.05-1.88-4.78-2.26-.16-.03-.31,0-.31.04.26,1.79,8.16,7.91,9.96,7.38,1.8-.81,2.17-3.29,2.98-5.01,1.02-2.49,2.49-5.85,5.04-6.81h0Z"/>
      <path class="cls-17" d="M508.26,500.3c-.28,2.21-.19,4.4-.31,6.62-.19,1.94-.31,3.9-.13,5.85.1.79,0,1.6-1.06,1.39-.41-.04-.95-.29-1.21,0-.53,1.04-.1,2.44-.07,3.69.1,2.23.67,4.4.54,6.65-1.02-3.06-2.06-6.59-1.58-10.04.09-.31.17-.67.51-.96.32-.3.82-.35,1.13-.27.43.07.76.27,1.12.32.04,0,.05.01.09-.05.38-2.15-.03-4.42-.17-6.59-.05-2.23.09-4.58,1.05-6.64,0,0,.09.03.09.03h0Z"/>
      <path class="cls-17" d="M502.51,492c-.41.67-.77,1.49-1.61,1.78-.2.05-.55-.06-.7-.32-.14-.21-.12-.46-.11-.63-.1.53.59.94,1.04.6.06-.05.04-.02.04-.02,0,0-.01.03-.03.05-.09.16-.19.33-.3.49-1.03,1.92-2.74,3.29-4.31,4.73-1.58,1.58-2.46,3.69-4.5,4.89-2.07,1.44-4.91.57-5.94-1.71-.12-.23-.23-.4-.23-.43.02,0,.1-.11-.1-.08-.16.02-.39.1-.61.2-.45.2-.92.48-1.42.73l-.14-.14c.6-1.07,1.57-2.75,3.1-2.05.45.25.66.53.85.73,1.87,2.48,4.1.98,6.2-.41,1.88-1.13,2.92-3.04,3.88-4.93.74-1.17,1.67-2.25,2.72-3.15.32-.23.89-.11,1.03.32.06.16.05.31,0,.44-.02-.01-.02-.19-.1-.29-.12-.22-.45-.32-.59-.24.49-.08,1.09-.52,1.68-.72,0,0,.14.15.14.15h0Z"/>
      <path class="cls-17" d="M485.05,519.33c.82,2.11,1.54,4.26,1.67,6.54.02.15.02.08-.04,0-.15-.24-.61-.23-.73.03.13-.26.24-.86.35-1.18.01-.04.04-.1.06-.14-.08.18.05-.41.66,0,.13.32.04.2.07.25-.16.98-.4,1.9-.72,2.84-.1-.96-.08-1.94-.07-2.86.02.04-.06-.1.06.21.61.4.74-.18.65,0l.02-.04s.03-.06.03-.06c0,.04-.02.19-.03.24-.09.44-.05.82-.32,1.28-.21.31-.74.24-.87-.11-.1-.23-.09-.5-.12-.72-.24-2.08-.76-4.16-.68-6.29h0Z"/>
      <path class="cls-17" d="M527.08,506.26c-2.87-.38-4.49,2.34-4.45,4.92-.09,1.87.54,3.71-.12,5.57-.31.95-.95,1.78-1.68,2.41-.73.6-1.54,1.16-2.52,1.41-1,.26-1.87.02-2.71.37,0,0-.05-.09-.05-.09.67-.64,1.74-.66,2.51-1.03,1.41-.73,2.88-1.95,3.57-3.41,1.15-2.65.34-5.36.73-8.05.44-1.98,2.97-3.22,4.74-2.19,0,0-.03.09-.03.09h0Z"/>
      <path class="cls-17" d="M517.96,501.52c-.23.26-.68.22-.96.3-.25.09-.36.4-.45.7-.6,2.65-.4,5.45-1.27,8.09-.25.94-2.19,3.16-2.66,1.33-.05-.28-.04-.52-.03-.78,0,.03.05.07.06.1.11.12.32.09.39-.04,0,0,0-.01,0,0l-.04.1c-.25.62-.44,1.29-.71,1.92.06-.74.13-1.46.27-2.2.03-.12.12-.24.27-.25.14-.02.28.13.29.24.06.28.07.5.15.74.03.14.14.22.06.14-.11,0,.02-.03.1-.13.47-.45.81-.9.97-1.49.71-2.59.62-5.44,1.71-7.96.17-.3.39-.71.84-.78.4-.03.69.14,1.02-.04h0Z"/>
    </g>
    <g>
      <path class="cls-32" d="M622.77,504.14c-10.89,16.66-17.63,7.27-16.96,16.96.67,9.69,4.19,11.73,9.19,14.88s24.32,15.66,25.49,21.9,6.4,15.54,13.78,15.52c7.38-.02,22.79-13.78,27.03-19.4s14.18-21.81,14.18-21.81c0,0-42.16-41.56-52.16-40.45s-7.96-6.85-20.55,12.4Z"/>
      <path class="cls-17" d="M620.46,520.34c2.03,2.94,5.19,4.28,8.24,5.82.32.19.75.47,1,1.02.34.91.06,1.18.36,1.92.18.55.53,1.1.86,1.69-.94-.4-1.9-1.12-2.29-2.16-.28-.72-.11-.67-.74-.92-3.37-.98-7.34-3.49-7.43-7.37h0Z"/>
      <path class="cls-17" d="M628.9,514.98c2.98-1.28,6.35-1.99,9.56-1.19,1.16.18,2.16,1.32,1.76,2.57-.27.91-1.01,1.54-1.86,1.88-.31.09-.58.24-1.12.06-.44-.14-.55-.8-.34-1.16.61-1.08,2.02-.78,2.97-.69,2.18.41,4.2,1.18,6.12,2.19l-.03.09c-2.6-.46-5.13-1.3-7.7-1.32-.3.04-.45.05-.5.2,0-.04-.08-.18-.13-.18.71.05,1.75-.58,2.08-1.27.84-2.62-2.88-2.21-4.45-1.9-1.49.11-5.27.91-6.36.71h0Z"/>
      <path class="cls-17" d="M650.23,533.71c1.7,2.35,4.44,3.39,7.08,4.32,1.92.85,4.77,1.14,5.59,3.49.2.89-.14,1.7-.5,2.34-2.02,3.01-4.27,5.89-7.21,8-2.5,1,1.07-4.72,1.19-5.48.5-1.31.81-2.68,1-4.07.19-1.39.17-2.78.27-4.25.06-.59.15-1.35.7-1.81.96-.69,2.24-.01,3.05.3.97.42,1.91,1,2.87,1.41,5.58,2.41,11.94-.12,16.59-3.5,0,0,.07.07.07.07-2.09,1.98-4.61,3.47-7.34,4.47-2.42.83-5.08,1.17-7.62.64-.61-.18-1.56-.4-2.12-.7-.95-.41-1.97-1.01-2.88-1.44-.6-.28-1.3-.57-1.78-.55-.22.02-.28.07-.4.31-.57,3.11-.36,6.33-1.9,9.33-.72,1.65-1.88,3.05-2.26,4.78-.03.16,0,.31.04.31,1.79-.26,7.91-8.16,7.38-9.96-.81-1.8-3.29-2.17-5.01-2.98-2.49-1.02-5.85-2.49-6.81-5.04h0Z"/>
      <path class="cls-17" d="M647.4,525.75c2.21.28,4.4.19,6.62.31,1.94.19,3.9.31,5.85.13.79-.1,1.6,0,1.39,1.06-.04.41-.29.95,0,1.21,1.04.53,2.44.1,3.69.07,2.23-.1,4.4-.67,6.65-.54-3.06,1.02-6.59,2.06-10.03,1.58-.31-.09-.67-.17-.96-.51-.3-.32-.35-.82-.27-1.13.07-.43.27-.76.31-1.12,0-.04.01-.05-.05-.09-2.15-.38-4.42.03-6.59.17-2.23.05-4.58-.09-6.64-1.05,0,0,.03-.09.03-.09h0Z"/>
      <path class="cls-17" d="M639.1,531.5c.67.41,1.49.77,1.78,1.61.05.2-.06.55-.32.7-.21.14-.46.12-.63.11,0,0-.02,0,.02,0,.54.06.9-.63.58-1.05-.05-.06-.02-.04-.02-.04,0,0,.03.01.05.03.16.09.33.19.49.3,1.92,1.03,3.29,2.74,4.73,4.31,1.58,1.58,3.69,2.46,4.89,4.5,1.58,2.4.4,5.12-2.14,6.16,0-.02-.11-.1-.08.1.02.16.1.39.2.61.2.45.48.92.73,1.42,0,0-.14.14-.14.14-1.07-.6-2.75-1.57-2.05-3.1.25-.45.53-.66.73-.85,2.48-1.87.98-4.1-.41-6.2-1.13-1.88-3.04-2.92-4.93-3.88-1.17-.74-2.25-1.67-3.15-2.72-.23-.32-.11-.89.32-1.03.16-.06.31-.05.44,0-.01.02-.19.02-.29.1-.22.12-.32.45-.24.59-.08-.49-.52-1.09-.72-1.68,0,0,.15-.14.15-.14h0Z"/>
      <path class="cls-17" d="M666.43,548.96c2.11-.82,4.26-1.54,6.54-1.67.16-.02.08-.02,0,.04-.24.15-.23.61.03.73-.26-.13-.86-.24-1.18-.35-.04-.01-.1-.04-.14-.06.18.08-.41-.05,0-.66.32-.13.2-.04.25-.07.98.16,1.9.4,2.84.72-.96.1-1.94.08-2.86.07.04-.02-.1.06.21-.06.4-.61-.18-.74,0-.65l-.04-.02s-.06-.03-.06-.03c.04,0,.19.02.24.03.44.09.82.05,1.28.32.31.21.24.74-.11.87-.23.1-.5.09-.72.12-2.08.24-4.16.76-6.29.68h0Z"/>
      <path class="cls-17" d="M653.36,506.94c-.38,2.87,2.34,4.49,4.92,4.45,1.87.09,3.71-.54,5.57.12.95.31,1.78.95,2.41,1.68.6.73,1.16,1.54,1.41,2.52.26,1,.02,1.87.37,2.71l-.09.05c-.64-.67-.66-1.74-1.03-2.51-.73-1.41-1.95-2.88-3.41-3.57-2.65-1.15-5.36-.34-8.05-.73-1.98-.44-3.22-2.97-2.19-4.74,0,0,.09.03.09.03h0Z"/>
      <path class="cls-17" d="M648.62,516.05c.26.23.22.68.3.96.09.25.4.36.7.45,2.65.6,5.45.4,8.09,1.27.94.25,3.16,2.19,1.33,2.66-.28.05-.52.04-.78.03.03,0,.07-.05.1-.06.12-.11.09-.32-.04-.39,0,0-.01,0,0,0l.1.04c.62.25,1.29.44,1.92.71-.74-.06-1.46-.13-2.2-.27-.12-.03-.24-.12-.25-.27-.02-.14.13-.28.24-.29.28-.06.5-.07.74-.15.14-.03.22-.14.14-.06,0,.11-.03-.02-.13-.1-.45-.47-.9-.81-1.49-.97-2.59-.71-5.44-.62-7.96-1.71-.3-.17-.71-.39-.78-.84-.03-.4.14-.69-.04-1.02h0Z"/>
      <path class="cls-26" d="M212.73,50.32c6.07.85,13.47-6.01,14.5-5.69s.22-1.97-.22-3.28-1.97-4.3-1.97-4.3c0,0-10.29,4.06-12.15,4.53s-2.53,3.15-2.42,3.81,2.27,4.94,2.27,4.94Z"/>
    </g>
    <path class="cls-26" d="M281.63,57.22c.65,5.91,8.86,11.23,8.81,12.27s1.91-.26,3.04-.99,3.57-2.88,3.57-2.88c0,0-6.27-8.7-7.16-10.34s-3.57-1.63-4.16-1.37-4.1,3.31-4.1,3.31Z"/>
  </g>
  <g id="Calque_3" data-name="Calque 3">
    <g>
      <path class="cls-30" d="M515.1,347.79s11.08,62.12,0,68.45-20.04,7.38-20.04,2.11,1.67-62.52,4.79-70.56,15.25,0,15.25,0Z"/>
      <path class="cls-30" d="M497.17,261.18s11.08,62.12,0,68.45c-11.08,6.33-20.04,7.38-20.04,2.11s1.67-62.52,4.79-70.56c3.12-8.04,15.25,0,15.25,0Z"/>
      <path class="cls-30" d="M772.58,270.28s11.08,62.12,0,68.45c-11.08,6.33-20.04,7.38-20.04,2.11s1.67-62.52,4.79-70.56c3.12-8.04,15.25,0,15.25,0Z"/>
      <path class="cls-30" d="M756.86,361.95s11.08,62.12,0,68.45c-11.08,6.33-20.04,7.38-20.04,2.11s1.67-62.52,4.79-70.56c3.12-8.04,15.25,0,15.25,0Z"/>
      <path class="cls-30" d="M770.09,263.96c-10.02-2.08-265.28-11.45-277.69-8.08s-9.25,65.08-7.14,79.85,43.73,27.96,84.37,30.07,186.75,8.44,189.91,2.64,10.55-104.47,10.55-104.47Z"/>
      <g>
        <g>
          <path class="cls-32" d="M602.63,179.26s-28.09-7.12-35.6-3.96-61.71,12.26-64.48,36.4,1.98,62.51,17.8,69.23c124.22,51.03,124.62,53.8,136.88,51.82s72-39.16,75.16-41.54,4.35-4.35,4.35-22.95v-44.31s1.19-15.43-7.91-17.01c-9.49-2.37-126.2-27.69-126.2-27.69Z"/>
          <path class="cls-18" d="M521.33,205.57c18.57,6.84,60.1,22.52,78.14,28.73,8.72,3.06,17.46,6.06,26.28,8.75,7.62,2.23,15.3,4.83,23.22,5.45.93-.02,1.83.07,2.67-.39,24.54-13,49.15-25.83,74.03-38.19-16.03,9.28-32.14,18.39-48.35,27.32-8.08,4.51-16.22,8.91-24.33,13.37-1.12.67-2.77.8-4.09.76-8.25-.57-16.15-3.19-24.02-5.46-35.35-11.28-69.65-25.33-103.54-40.34h0Z"/>
          <path class="cls-22" d="M503.53,211.94s141.56,63.19,156.59,54.49,75.67-43.73,75.67-43.73c0,0,3.09,61.39-1.53,65.71s-67.58,43.01-77.18,43.8c-8.7.72-10.05.07-18.5-2.47-8.44-2.53-118.5-49.89-118.5-49.89,0,0-5.64-2.87-9.05-10.38-3.02-6.03-10.63-22.05-7.52-57.52Z"/>
          <path class="cls-37" d="M503.07,211.5s137.9,61.19,156.11,55.32c13.03-7.39,76.61-44.13,76.61-44.13"/>
          <path class="cls-31" d="M508.74,221.2s-2.7,4.42,0,6.07,3.63,1.98,4.29,1.71.99-4.68.92-5.14-3.43-2.84-5.21-2.64Z"/>
          <path class="cls-36" d="M520.28,226.34s-2.7,4.42,0,6.07,3.63,1.98,4.29,1.71.99-4.68.92-5.14-3.43-2.84-5.21-2.64Z"/>
          <path class="cls-27" d="M530.3,231.5s-2.7,4.42,0,6.07,3.63,1.98,4.29,1.71.99-4.68.92-5.14-3.43-2.84-5.21-2.64Z"/>
          <ellipse class="cls-4" cx="646.35" cy="239.94" rx="6.23" ry="3.61"/>
          <ellipse class="cls-16" cx="646.35" cy="239.94" rx="3.12" ry="1.8"/>
          <path class="cls-28" d="M595.44,196.21l-19.32,10.02,45.76,15.63,19.91-11.21s-43.71-14.9-46.68-14.44"/>
          <polyline class="cls-25" points="597.88 177.81 582.85 184.01 675.29 210.52 695.73 199.57"/>
          <path class="cls-34" d="M603.82,148.14l-5.93,38.9,7.25,2.24s6.07-38.11,4.62-39.56-5.93-1.58-5.93-1.58Z"/>
          <path class="cls-34" d="M701.43,166.7s-6.53,29.47-8.01,31.35-1.88,2.57-1.88,2.57l4.19-2.27,6.2,1.48s5.04-31.05,4.65-32.04-5.14-1.09-5.14-1.09Z"/>
          <path class="cls-32" d="M606.59,125.59s7.74,56.06,0,63.69l68.74,20.14,16.22-8.8s1.58-1.19,1.88-2.57,8.7-32.14,8.7-32.14l-1.58-23.54-93.96-16.78Z"/>
        </g>
        <path class="cls-18" d="M521.33,280.38c-.79-5.75-2.14-11.94-1.31-17.73.17-.47.37-.96.92-1.14.62-.18,1.27.17,1.81.3,0,0,2.1.68,2.1.68,26.35,9,52.33,19.04,77.86,30.15,3.79,1.77,7.73,3.29,11.29,5.54.23.17.47.44.55.73.83,6.76.69,13.54,1.72,20.27.12.72.26,1.44.59,2.09-.77-1.27-.99-2.77-1.34-4.19-1.22-5.85-1.69-11.89-2.68-17.75,0,.09.06.21.13.28.05.05,0,0,0,0-.95-.59-2.05-1.03-3.1-1.5-21.71-8.91-51.76-20.32-73.4-29.14-2.54-1.02-9.72-3.9-12.22-4.89,0,0-2.04-.78-2.04-.78-.33-.12-.71-.26-.96-.34,0,0-.06-.02-.02-.01.05.01.11,0,.16-.02.14-.05.15-.13.07-.01,0,0-.07.17-.07.17-1.06,5.62-.24,11.56-.08,17.27h0Z"/>
        <path class="cls-32" d="M540.67,271.44s-55.79,35.21-57.38,35.34,82.97,43.52,85.33,43.12,46.87-34.67,46.87-34.67c0,0,.2-15.17-1.78-16.1s-73.69-29.27-73.04-27.69Z"/>
        <path class="cls-33" d="M532.31,267.22s-43.48,34.15-42.69,35.07,50.64-30.99,51.03-31.52-8.34-3.56-8.34-3.56Z"/>
        <path class="cls-33" d="M614.4,307.86s-39.26,34-38.27,37.95,39.36-29.67,39.36-29.67l-1.09-8.28Z"/>
        <path class="cls-29" d="M536.37,282.12s7.32-2.97,9.1,0,1.1,3.76,3.91,4.75"/>
        <path class="cls-17" d="M525.55,292.91c.84.05,1.55.23,2.33.71,1.31,1.03,1.49,2.54,2.45,3.8.94,1.25,2.6,1.27,3.85,2.07,1.66.9,3.23,1.74,4.54,3.14.26.3.58.74.52,1.22,0,0-.2.04-.2.04-.43-.4-1.38-.51-1.93-.7-.71-.2-1.43-.46-2.11-.81-2.75-1.51-4.35-4.29-7.04-5.87-.52-.41-.83-1.26-1.13-1.75-.35-.48-.94-1-1.38-1.7,0,0,.1-.17.1-.17h0Z"/>
        <path class="cls-17" d="M515.2,302.39c-.25.81-1.13,1.68-1.18,2.1.37.5.95,1.59,1.56,2.05.53.42,1.23.57,1.92.57,2.15-.01,4.31-.18,6.34.78.69.33,1.47.86,1.73,1.66l-.15.13c-1.37-.45-2.6-.19-4-.33-2.23-.11-4.28-1.15-6.19-2.27-.67-.36-1.39-.5-2.09-.97-.61-.33-1.24-1.53-.68-2.36.62-.92,1.61-1.27,2.61-1.52,0,0,.13.15.13.15h0Z"/>
        <path class="cls-17" d="M537.81,289.95c1.37.51,2.52.72,3.84,1.3.81.61,1.06,1.15,1.47,1.69.83,1.09,1.35,2.47,1.51,3.8.1.66.2,1.26.59,1.64.39.39,1.04.53,1.65.6,1.31.14,2.59-.17,3.94-.14,2.05.08,4.1.56,5.97,1.39,2.41,1.18,4.85,2.76,6.17,5.18,0,0-.16.12-.16.12-4.93-2.99-10.34-4.93-16.03-5.87-.65-.16-1.34-.31-1.96-.78-.64-.48-.91-1.22-1.21-1.78-.58-1.17-1.3-2.09-1.95-3.19-.2-.32-.7-1.18-.9-1.4-1-.58-2.3-1.4-3.04-2.39,0,0,.11-.17.11-.17h0Z"/>
        <path class="cls-17" d="M568.71,292.97c.64.72,1.16,1.44,1.69,1.53.54.18,1.52.19,2.37.5,1.8.83,3.1,1.54,5.17,1.35,2-.04,3.73,1.38,5.01,2.78,1.23,1.56,1.67,3.02,2.72,4.67,0,0-.13.15-.13.15-2.57-.91-4-3.49-5.91-5.19-1.18-1.2-2.81-1.81-4.5-2.03-1.38-.21-2.67.07-4.01-.29-1.73-.25-2.83-1.66-2.61-3.41,0,0,.19-.06.19-.06h0Z"/>
        <path class="cls-17" d="M549.46,309.55c1.29.61,2.3,1.53,3.01,2.7.31.59.48,1.29.9,1.78.43.55,1.15.7,1.74,1,.69.35,1.25.78,1.73,1.25,1.59,1.26,2.32,3.07,3.66,4.51,0,0-.02.2-.02.2-.81.2-1.59-.2-2.21-.55-1.97-1.11-2.96-3.14-4.13-4.92-1.35-1.36-3.39-1.98-4.18-3.84-.3-.61-.57-1.24-.67-2l.16-.12h0Z"/>
        <path class="cls-17" d="M532.38,313.84c-.41,1.02-1.33,2.12-.69,2.82.17.13.45.29.79.44.59.38,1.69-.1,2.45-.08,2.97-.11,5.69,1.27,8.07,2.88,1.51,1.1,2.94,2.32,4.12,3.87l-.11.16c-3.76-.93-6.67-3.19-9.56-5.56-.71-.53-1.59-.89-2.43-.72-.71.13-1.19.72-1.92.97-2.7.69-4.48-2.4-2.15-4.19.39-.34.84-.58,1.31-.75l.13.15h0Z"/>
        <path class="cls-17" d="M572.46,313.79c.45,2.53-.74,5.75,3.18,4.59,2.83-1.38,6.61-.93,8.52,1.76.53.72.94,1.58.96,2.49,0,0-.18.08-.18.08-2.4-2.1-4.9-3.2-7.95-3.67-1.28-.19-2.47.35-3.74.47-3.28.12-2.53-4.16-.97-5.77,0,0,.19.05.19.05h0Z"/>
        <path class="cls-29" d="M559.11,325.64c-.59,2.18-3.96,2.77,0,3.16,3.96.4,4.95-3.56,7.32-.2s4.55,4.59,4.55,4.59"/>
        <path class="cls-17" d="M585.69,309.54c1.23.34,2.22,1.3,2.93,2.2.61,1.29,1.72,1.05,2.33-.12.82-1.36.21-4.17,2.44-4.11,1.42.35,2.07,1.59,2.59,2.82,0,0-.13.15-.13.15-.93-.21-1.73-.67-2.54-.91-.13-.06-.1.02-.09,0,.1.04.22.01.3-.04.12-.02.23-.15.26-.18-.01.04-.02.09-.04.13-.36,1.11-.9,2.38-2.02,2.93-1.25.67-2.81,1.47-4.18.59-1.19-.85-1.6-1.97-1.98-3.32,0,0,.14-.14.14-.14h0Z"/>
        <path class="cls-17" d="M597.78,296c.07.33.02.7-.17,1,.06,0,.19-.27.13-.47-.02-.16-.23-.31-.17-.27.87.12,1.82.8,2.33,1.51.34.52.52,1.18.88,1.63,1.17,1.29,3.11,1.73,4.34,3.03.83.82,1.57,1.73,2.13,2.94l-.12.16c-1.96-.32-3.48-1.3-4.66-2.75-.84-.84-1.19-2.18-2.14-2.93-.99-.66-2.1-1.01-2.8-2.05-.21-.26-.3-.4-.57-.67.04.03-.18-.13-.21-.31-.09-.24.09-.52.21-.57.24-.05.41-.17.65-.33,0,0,.19.07.19.07h0Z"/>
        <path class="cls-29" d="M554.94,284.77c-.38,3.48-.02,2.89,2.28,4.47s2.89,1.98,3.28,3.76"/>
        <path class="cls-17" d="M549.48,291.05c.41,1.08.56.92,1.28,1.58.27.3.57.78.98,1,1.44.85,2.92-.48,4.3.12,1.12.57,1.63,1.4,1.96,2.54,0,0-.13.15-.13.15-.57-.06-1.05-.19-1.49-.34-.92-.29-1.14-.44-2.07-.46-1.22,0-1.76-1.17-2.81-1.4-.46-.12-1.02,0-1.56-.15-.52-.15-1.1-.65-1.28-1.4-.15-.75.14-1.35.63-1.69l.19.05h0Z"/>
        <path class="cls-17" d="M543.94,302.23c.53-.21,1-.1,1.31-.17-.02,0-.26-.11-.61.28-.21.32-.1.43-.09.4.26-.28.2-.68.46-1.15.13-.2.35-.22.47-.23.99.03,2.04-.06,2.85.57.49.42.86.99,1,1.86,0,0-.12.16-.12.16-.88.16-1.51.01-2.06-.24-.76-.42-1.02-1.12-1.53-1.69-.06-.04-.1-.05-.13-.06-.03,0,.01,0,.07-.04.05-.06.13.08.27.17.36.32.64.64.22,1.35-.99,1.01-2.12-.04-2.21-1.04,0,0,.11-.17.11-.17h0Z"/>
        <path class="cls-17" d="M537.85,309.6c.82.52,1.33.41,2.01,1,.27.29.54.73.91.93.78.45,1.77-.05,2.61.17.38.06.8.13,1.13.42.14.12.32.35.25.25-.23-.36-.95-.53-1.36-.24-.46.26-.64.85-.47,1.27-.12-.27-.21-.6-.28-.9-.51-1.15,1.08-1.88,1.64-.88.16.63.2,1.21.09,1.92,0,0-.18.09-.18.09-.49-.22-.87-.5-1.2-.8-.04-.04-.26-.24-.29-.28-.04.06.37.43.6.43.59.15,1.32-.5,1.06-1.21-.05-.12-.03-.07-.03-.08.28.31.54.69.66,1.1.29,1.14-1.2,1.86-1.91.92-.13-.19-.04-.03.03.02.03.03.1.06.1.06-.46-.35-1.02-.56-1.49-1.02-.79-.79-1.59-.59-2.59-.66-.96-.21-1.94-1.44-1.47-2.46,0,0,.2-.04.2-.04h0Z"/>
        <path class="cls-17" d="M513.11,311.69c-.61.24-1.72.34-2.09.62.04-.01.01,0,.1-.05.1-.07.12-.19.16-.28.05-.09-.02-.28,0-.27,0-.02,0-.04,0-.06,1.08.65,1.96,1.77,3.1,2.39,2.66,1.07,5.72.57,8.42,1.6.19.07.67.2.88.3.45.13.8.83.73,1.11-.02.36-.1.47-.13.63-.14.54.03.97.29,1.54,0,0-.13.15-.13.15-.67-.21-1.34-.85-1.48-1.61-.06-.25-.08-.56-.12-.61-.06-.05.05.31.2.37.02.02.02.03.04.04.05.02,0,.02-.04.02-1.46-.04-2.89-.34-4.27-.85-1.62-.47-3.01-1.61-4.62-2.1-1.51-.41-3.3-.55-4.27-2.04-.38-.55-.22-1.43.46-1.67.66-.22,1.02-.1,1.59.03.43.12.84.29,1.23.54l-.03.2h0Z"/>
        <path class="cls-29" d="M539.14,325.64c8.7,3.56,7.52-1.58,10.48,3.56,2.97,5.14,1.98,3.36,2.97,5.14"/>
        <path class="cls-17" d="M568.66,302.79c-.17.57-.86,1.59-.32,2.03.52.32,1.44.47,2.03.15.33-.13.57-.46,1.22-.61,1.5.03,1.94,1.86,2.89,2.71.45.63,1.26,1.06,1.41,1.89,0,.21-.12.39-.22.47-.8.56-1.61.64-2.51.75-4.65.34-3.77-2.67-.38-4.13,2-.86,4.54-1.83,6.25.1.99.8,2.11,1.64,2.62,2.89.38.76.38,1.7.61,2.46.46,1.47,1.56,2.77,2.79,3.84l-.05.08c-1.45-.82-2.77-2.01-3.48-3.66-.43-1.61-.77-2.98-2.21-4.01-.55-.42-1.3-1.09-1.82-1.53-2.02-.62-4.75.52-6.48,1.66-1.9,1.57.77,2.23,2.13,1.97.71-.1,1.63-.35,2.14-.81.12-.11-.31-.44-.45-.57-.97-.74-1.85-1.79-2.51-2.79-.23-.31-.5-.51-.62-.49-.18,0-.57.28-1,.47-.44.21-.98.22-1.43.11-.97-.2-2.03-.81-1.35-1.97.2-.39.43-.73.67-1.07l.09.05h0Z"/>
        <path class="cls-17" d="M557.98,310.07c.09.51-.24.96-.14,1.34.07.37.47.6.84.8.97.48,2.15.73,3.22,1,.24.07.44.07.77.25.32.17.46.59.49.9.12,1.41.73,2.96.03,4.38-.17.29-.63.48-.95.4-1.54-.39-2.41-1.77-2.97-3.09-.48-1.36-1.17-3.31.02-4.49,2.49-1.35,7.22,4.46,8.49,6.38.39.55.74,1.37.83,2.08.03.18.07.25.2.43,1.37,1.78,2.8,3.56,4.88,4.55.79.44,1.72.78,2.33,1.54l-.07.07c-.69-.6-1.61-.79-2.47-1.15-2.29-.78-4-2.59-5.49-4.4-.33-.35-.43-1-.55-1.46-.59-1.5-1.93-3.04-3.01-4.32-1.18-1.27-2.46-2.74-4.07-3.39-.93-.32-1.37.6-1.34,1.42-.04,1.73.77,3.67,2.2,4.67.34.2,1.13.72,1.34.35.27-.97-.06-2.06-.16-3.15-.02-.17-.08-.79-.13-.94-.07-.14-.33-.15-.57-.24-1.13-.34-2.24-.7-3.28-1.33-.39-.26-.87-.62-.91-1.21-.02-.57.37-.93.38-1.36,0,0,.1-.02.1-.02h0Z"/>
        <path class="cls-17" d="M523.68,301.7c-.17.17-.54.18-.59.31.23.31.66.53,1,.74,2,1.04,4.17,1.65,6.03,3.05.61.46,1.03,1.05,1.68,1.45.59.59,3.71,1.11,1.45,1.86-1.1.34-2.06.9-3.23,1.16-.25.04-.55.01-.76-.19-.52-.57-.28-1.31-.2-1.94.52-2.94,4.52-4.7,6.94-2.76.29.18.75.79.78,1.06.94.52,2.73.8,3.88,1.01.7.03,1.56.01,2.23.34,0,0-.02.1-.02.1-.37-.04-.75-.1-1.1-.07-1.69.32-3.48.04-5.14-.4-.18-.06-.51-.18-.7-.53-.93-1.82-3.71-1.48-5.06-.24-.75.65-1.17,1.7-1.24,2.67.01.32,0,.39.34.39.98-.12,2.68-.72,3.66-1.12.07-.03.14-.12.11-.07.03.08-.02,0-.1-.03-1.4-.4-2.86-1.07-4.02-2.03-1.83-1.19-4-2-5.84-3.29-.39-.33-.86-.63-1-1.16.05-.46.58-.27.81-.41,0,0,.07.07.07.07h0Z"/>
      </g>
    </g>
  </g>
</svg>