<?xml version="1.0" encoding="UTF-8"?>
<svg id="Calque_1" data-name="Calque 1" xmlns="http://www.w3.org/2000/svg" viewBox="0 0 646.07 81.36">
  <defs>
    <style>
      .cls-1 {
        fill: #462e17;
      }

      .cls-1, .cls-2 {
        stroke: #472e16;
        stroke-miterlimit: 10;
      }

      .cls-2 {
        fill: none;
      }
    </style>
  </defs>
  <g>
    <path class="cls-1" d="M69.24,74.84c0,.68-.15,1.11-.44,1.27-.13.1-.59.18-1.37.24-1.99.2-4.79.29-8.4.29-5.11,0-8.11-.1-9.01-.29-.9-.2-1.34-.63-1.34-1.32,0-2.57.12-6.44.37-11.6.24-5.16.37-9.02.37-11.6,0-1.27-.36-2-1.07-2.2-1.11-.26-5.05-.39-11.82-.39s-10.77.13-11.91.39c-.72.16-1.07.9-1.07,2.2,0,2.54.08,6.34.24,11.4.16,5.06.24,8.86.24,11.4,0,.98-.44,1.55-1.32,1.71-1.04.2-4.1.29-9.18.29-4.39,0-7.19-.1-8.4-.29-.94-.16-1.42-.67-1.42-1.51,0-3.52.17-8.82.51-15.92.34-7.1.51-12.42.51-15.97,0-3.78-.16-9.45-.49-17.02-.33-7.57-.49-13.24-.49-17.02,0-.72.34-1.07,1.03-1.07,1.01,0,2.53.05,4.57.15,2.03.1,3.56.15,4.57.15s2.61-.05,4.71-.15,3.67-.15,4.71-.15c.55,0,.83.29.83.88,0,2.44-.18,6.1-.54,10.96-.36,4.87-.54,8.52-.54,10.96,0,1.14.31,1.81.93,2,.85.26,5.01.39,12.5.39,6.97,0,11-.13,12.11-.39.78-.2,1.17-.86,1.17-2,0-2.34-.11-5.88-.34-10.62-.23-4.74-.34-8.29-.34-10.67,0-1.01.41-1.51,1.22-1.51.94,0,2.38.05,4.32.15,1.94.1,3.39.15,4.37.15s2.38-.05,4.32-.15c1.94-.1,3.39-.15,4.37-.15s1.42.39,1.42,1.17c0,3.74-.15,9.39-.46,16.94-.31,7.55-.46,13.22-.46,16.99,0,3.55.17,8.87.51,15.97.34,7.1.51,12.4.51,15.92Z"/>
    <path class="cls-1" d="M142.63,75.14c0,.59-.41.99-1.22,1.22-.98.26-4,.39-9.08.39-4.66,0-7.65-.13-8.98-.39-1.11-.23-1.81-.96-2.1-2.2-1.11-4.69-1.97-7.19-2.59-7.52-.52-.23-4.88-.34-13.09-.34-5.53,0-8.48.15-8.84.44-.55.52-1.17,2.26-1.86,5.22-.62,2.7-1.37,4.17-2.25,4.39-1.11.26-4.82.39-11.13.39-4.98,0-7.47-.47-7.47-1.42,0-.85,3.68-11.25,11.04-31.2,7.98-21.58,12.3-33.45,12.99-35.6.39-1.24.85-1.86,1.37-1.86.88,0,2.24.08,4.08.24,1.84.16,3.21.24,4.13.24s2.17-.06,3.88-.17c1.71-.11,2.99-.17,3.83-.17.62,0,1.19.54,1.71,1.61,1.59,3.42,6.25,15.14,13.96,35.16,7.75,20.15,11.62,30.66,11.62,31.54ZM108.01,30.65c-.68,1.43-1.84,4.54-3.47,9.33-1.76,5.08-2.64,8.06-2.64,8.94,0,.59.98.91,2.93.98,1.01.07,2.67.1,4.98.1,2.15,0,3.34-.26,3.56-.78.06-.16.1-.39.1-.68,0-1.07-.75-4.04-2.25-8.89-1.46-4.69-2.54-7.68-3.22-8.98Z"/>
    <path class="cls-1" d="M167.43,40.27c0,3.84.1,9.62.29,17.33s.29,13.49.29,17.33c0,.65-.15,1.06-.44,1.22-.07.03-.49.1-1.27.2-2.12.26-4.95.39-8.5.39-4.75,0-7.78-.13-9.08-.39-.94-.2-1.42-.7-1.42-1.51,0,.52.15-2.34.44-8.59.59-13.18.88-21.84.88-25.98,0-3.48-.11-8.71-.34-15.67-.23-6.97-.34-12.19-.34-15.67,0-.72.37-1.07,1.12-1.07,1.01,0,2.53.05,4.57.15,2.03.1,3.56.15,4.57.15s2.5-.05,4.47-.15c1.97-.1,3.46-.15,4.47-.15.94,0,1.42.36,1.42,1.07,0,3.48-.19,8.71-.56,15.67-.38,6.97-.56,12.19-.56,15.67Z"/>
    <path class="cls-1" d="M235.6,75.87c0,.23-.33.39-.98.49-1.24.2-4.35.29-9.33.29-4.26,0-7.16-.1-8.69-.29-.72-.1-1.12-.18-1.22-.24-.2-.1-.42-.42-.68-.98-.49-1.27-1.21-3.16-2.15-5.66-1.27-3.25-3.26-8.06-5.96-14.4-.59-1.27-1.94-1.97-4.05-2.1.98.07-.7.1-5.03.1-.49,0-.73.83-.73,2.49,0,2.21.2,5.52.61,9.91.41,4.39.61,7.7.61,9.91,0,.55-.15.88-.44.98-.46.03-.91.06-1.37.1-1.92.13-4.92.2-8.98.2-4.66,0-7.46-.1-8.4-.29-.94-.2-1.42-.7-1.42-1.51,0-3.58.17-8.98.51-16.21s.51-12.65.51-16.26c0-13.77-.31-24.51-.93-32.23l-.05-.68c-.03-.55.48-.93,1.54-1.12,1.06-.2,6.03-.39,14.92-.59,6.02-.13,10.82-.2,14.4-.2,7.42,0,13.48,1.68,18.16,5.03,5.31,3.78,7.96,9.23,7.96,16.36,0,4.75-.68,8.54-2.05,11.38s-3.89,5.58-7.57,8.25c-.75.52-1.12,1.01-1.12,1.46,0-.03,1.99,4.05,5.96,12.26,3.97,8.2,5.96,12.73,5.96,13.57ZM215.09,32.07c0-3.97-1.3-6.72-3.91-8.25-2.02-1.17-5.18-1.76-9.47-1.76-3.09,0-4.74.47-4.93,1.42-.2,1.11-.29,4.3-.29,9.57,0,.75.02,1.86.05,3.32.03,1.46.05,2.56.05,3.27,0,.16.52.33,1.56.49,1.99.29,4.07.44,6.25.44,7.13,0,10.69-2.83,10.69-8.5Z"/>
    <path class="cls-1" d="M299.61,33.97c0,7.88-2.07,14.26-6.2,19.14-4.43,5.18-10.53,7.76-18.31,7.76-1.3,0-3.26-.07-5.88-.22-2.62-.15-4.58-.22-5.88-.22-1.4,0-2.1.6-2.1,1.81,0,1.5.15,3.73.44,6.69.29,2.96.44,5.18.44,6.64,0,.75-.34,1.12-1.03,1.12-1.99,0-4.96-.06-8.94-.17-3.97-.11-6.95-.17-8.94-.17-.94,0-1.42-.47-1.42-1.42,0-3.61.06-9.04.17-16.28.11-7.24.17-12.67.17-16.28,0-10.22-.44-20.96-1.32-32.23l-.05-.68c-.07-.62.42-.99,1.46-1.12,2.54-.33,8.14-.49,16.8-.49,5.11,0,10.01.07,14.7.2,7.71.23,13.93,2.65,18.65,7.28,4.82,4.75,7.23,10.97,7.23,18.65ZM280.13,34.76c0-7.58-3.7-11.38-11.08-11.38-5.21,0-7.94.29-8.2.88-.23.42-.34,4.18-.34,11.28,0,1.01.04,2.5.12,4.47.08,1.97.12,3.46.12,4.47,0,.65,2.93.98,8.79.98,7.06,0,10.6-3.56,10.6-10.69Z"/>
    <path class="cls-1" d="M364.5,75.87c0,.23-.33.39-.98.49-1.24.2-4.35.29-9.33.29-4.26,0-7.16-.1-8.69-.29-.72-.1-1.12-.18-1.22-.24-.2-.1-.42-.42-.68-.98-.49-1.27-1.21-3.16-2.15-5.66-1.27-3.25-3.26-8.06-5.96-14.4-.59-1.27-1.94-1.97-4.05-2.1.98.07-.7.1-5.03.1-.49,0-.73.83-.73,2.49,0,2.21.2,5.52.61,9.91.41,4.39.61,7.7.61,9.91,0,.55-.15.88-.44.98-.46.03-.91.06-1.37.1-1.92.13-4.92.2-8.98.2-4.66,0-7.46-.1-8.4-.29-.94-.2-1.42-.7-1.42-1.51,0-3.58.17-8.98.51-16.21s.51-12.65.51-16.26c0-13.77-.31-24.51-.93-32.23l-.05-.68c-.03-.55.48-.93,1.54-1.12,1.06-.2,6.03-.39,14.92-.59,6.02-.13,10.82-.2,14.4-.2,7.42,0,13.48,1.68,18.16,5.03,5.31,3.78,7.96,9.23,7.96,16.36,0,4.75-.68,8.54-2.05,11.38s-3.89,5.58-7.57,8.25c-.75.52-1.12,1.01-1.12,1.46,0-.03,1.99,4.05,5.96,12.26,3.97,8.2,5.96,12.73,5.96,13.57ZM344,32.07c0-3.97-1.3-6.72-3.91-8.25-2.02-1.17-5.18-1.76-9.47-1.76-3.09,0-4.74.47-4.93,1.42-.2,1.11-.29,4.3-.29,9.57,0,.75.02,1.86.05,3.32.03,1.46.05,2.56.05,3.27,0,.16.52.33,1.56.49,1.99.29,4.07.44,6.25.44,7.13,0,10.69-2.83,10.69-8.5Z"/>
    <path class="cls-1" d="M389.85,40.27c0,3.84.1,9.62.29,17.33s.29,13.49.29,17.33c0,.65-.15,1.06-.44,1.22-.07.03-.49.1-1.27.2-2.12.26-4.95.39-8.5.39-4.75,0-7.78-.13-9.08-.39-.94-.2-1.42-.7-1.42-1.51,0,.52.15-2.34.44-8.59.59-13.18.88-21.84.88-25.98,0-3.48-.11-8.71-.34-15.67-.23-6.97-.34-12.19-.34-15.67,0-.72.37-1.07,1.12-1.07,1.01,0,2.53.05,4.57.15,2.03.1,3.56.15,4.57.15s2.5-.05,4.47-.15c1.97-.1,3.46-.15,4.47-.15.94,0,1.42.36,1.42,1.07,0,3.48-.19,8.71-.56,15.67-.38,6.97-.56,12.19-.56,15.67Z"/>
    <path class="cls-1" d="M465.14,9.36c0,3.71-.16,9.29-.46,16.72-.31,7.44-.46,13.03-.46,16.77v32.18c0,.88-.47,1.32-1.42,1.32-.78,0-1.96.03-3.54.1-1.58.06-2.76.1-3.54.1-.85,0-2.12-.07-3.81-.2-1.69-.13-2.96-.2-3.81-.2-.59,0-1.29-.54-2.1-1.61-2.34-3.16-7.62-10.16-15.82-21-2.25-3.03-5.66-7.49-10.25-13.38-.13-.2-.38-.39-.73-.59-.26.23-.39.59-.39,1.07,0,3.78.11,9.44.32,16.99.21,7.55.32,13.22.32,16.99,0,1.14-.44,1.71-1.32,1.71h-16.89c-.94,0-1.42-.5-1.42-1.51,0-3.52.17-8.82.51-15.92.34-7.1.51-12.42.51-15.97,0-3.74-.16-9.34-.46-16.8-.31-7.45-.46-13.04-.46-16.75,0-.72.63-1.07,1.9-1.07,1.89,0,4.21-.13,6.98-.39.65-.06,1.94-.28,3.86-.63,1.63-.29,2.91-.44,3.86-.44.39,0,.99.55,1.81,1.66l18.21,24.95c1.63,2.25,4.08,5.53,7.37,9.86.81,1.01,1.51,1.51,2.1,1.51.42,0,.63-1.27.63-3.81,0-3.42-.19-8.56-.56-15.43-.38-6.87-.56-12.03-.56-15.48,0-1.2.34-1.81,1.03-1.81,1.95,0,4.9-.08,8.84-.24,3.94-.16,6.88-.24,8.84-.24.62,0,.93.5.93,1.51Z"/>
    <path class="cls-1" d="M521.78,22.79c0,.65-.36.98-1.07.98-1.24,0-6.14-.24-14.7-.73-.2,8.24-.29,13.98-.29,17.24,0,3.84.15,9.62.46,17.33.31,7.71.46,13.49.46,17.33,0,.62-.15,1.01-.44,1.17-.1.07-.55.15-1.37.24-1.95.26-4.82.39-8.59.39-4.2,0-7.15-.13-8.84-.39-.91-.16-1.37-.67-1.37-1.51,0-3.84.16-9.6.49-17.29.33-7.68.49-13.44.49-17.29,0-2.54-.13-8.2-.39-16.99-6.51.65-11.7.98-15.58.98-.52,0-.78-.16-.78-.49,0-.42.23-1.68.68-3.76.52-2.28.81-3.66.88-4.15.1-1.53.21-3.06.34-4.59.23-2.44.62-3.66,1.17-3.66.06,0,.29.02.68.05,5.27.68,13.07,1.03,23.39,1.03,2.93,0,8.33-.31,16.21-.93,4.23-.33,6.36-.49,6.4-.49.65,0,1.03.04,1.12.12.1.08.16.4.2.95,0,.88-.03,2.1-.1,3.66-.07,1.73-.1,2.95-.1,3.66,0,.81.11,2.01.32,3.59.21,1.58.32,2.76.32,3.54Z"/>
    <path class="cls-1" d="M577,61.17c0,1.4-.28,3.97-.83,7.71-.59,4.07-1.11,6.49-1.56,7.28-.39.62-.93.93-1.61.93-.29,0-.78-.05-1.46-.15-2.38-.33-9.31-.49-20.8-.49-2.51,0-6.23-.02-11.18-.05-4.95-.03-8.66-.05-11.13-.05-1.07,0-1.61-.47-1.61-1.42,0-3.65.2-9.12.61-16.43.41-7.31.61-12.78.61-16.43s-.2-10.63-.59-20.75c-.1-2.6-.28-6.49-.54-11.67l-.05-.68c-.07-.75.34-1.12,1.22-1.12,2.41,0,6.03.07,10.86.2,4.83.13,8.46.2,10.86.2s5.96-.06,10.74-.2c4.79-.13,8.37-.2,10.74-.2,1.69,0,2.67.63,2.93,1.9.16.75.42,3.02.76,6.81.34,3.79.51,6.1.51,6.91,0,.68-.33,1.03-.98,1.03-.2,0-.54-.02-1.03-.05-8.66-.72-16.44-1.07-23.34-1.07-1.73,0-2.78.41-3.17,1.22-.16.39-.24,1.64-.24,3.76s.33,3.68.98,4.39c.55.62,1.61.93,3.17.93.33,0,.96-.02,1.9-.07.94-.05,1.72-.07,2.34-.07,4.1,0,8.25-.11,12.45-.34.36-.03,1.25-.11,2.69-.24,1.11-.13,1.99-.2,2.64-.2.78,0,1.17.37,1.17,1.12,0-.68-.29,1.81-.88,7.47-.26,2.6-.39,5.21-.39,7.81,0,.65-.47.98-1.42.98l-4.39-.49c-1.86-.2-6.09-.29-12.7-.29h-5.18c-1.33,0-2.12.33-2.34.98-.03.16-.05,1.17-.05,3.03,0,2.47.16,4.07.49,4.79.55,1.24,2.64,1.97,6.25,2.2-.07,0,2.31,0,7.13,0,1.72,0,4.29-.15,7.69-.46,3.4-.31,5.95-.46,7.64-.46.72,0,1.07.59,1.07,1.76Z"/>
    <path class="cls-1" d="M641.7,75.87c0,.23-.33.39-.98.49-1.24.2-4.35.29-9.33.29-4.26,0-7.16-.1-8.69-.29-.72-.1-1.12-.18-1.22-.24-.2-.1-.42-.42-.68-.98-.49-1.27-1.21-3.16-2.15-5.66-1.27-3.25-3.26-8.06-5.96-14.4-.59-1.27-1.94-1.97-4.05-2.1.98.07-.7.1-5.03.1-.49,0-.73.83-.73,2.49,0,2.21.2,5.52.61,9.91.41,4.39.61,7.7.61,9.91,0,.55-.15.88-.44.98-.46.03-.91.06-1.37.1-1.92.13-4.92.2-8.98.2-4.66,0-7.46-.1-8.4-.29-.94-.2-1.42-.7-1.42-1.51,0-3.58.17-8.98.51-16.21s.51-12.65.51-16.26c0-13.77-.31-24.51-.93-32.23l-.05-.68c-.03-.55.48-.93,1.54-1.12,1.06-.2,6.03-.39,14.92-.59,6.02-.13,10.82-.2,14.4-.2,7.42,0,13.48,1.68,18.16,5.03,5.31,3.78,7.96,9.23,7.96,16.36,0,4.75-.68,8.54-2.05,11.38s-3.89,5.58-7.57,8.25c-.75.52-1.12,1.01-1.12,1.46,0-.03,1.99,4.05,5.96,12.26,3.97,8.2,5.96,12.73,5.96,13.57ZM621.19,32.07c0-3.97-1.3-6.72-3.91-8.25-2.02-1.17-5.18-1.76-9.47-1.76-3.09,0-4.74.47-4.93,1.42-.2,1.11-.29,4.3-.29,9.57,0,.75.02,1.86.05,3.32.03,1.46.05,2.56.05,3.27,0,.16.52.33,1.56.49,1.99.29,4.07.44,6.25.44,7.13,0,10.69-2.83,10.69-8.5Z"/>
  </g>
  <path class="cls-2" d="M9.34,52.11c-3.96,1.32-2.37.92-4.48,1.45s-3.56-3.69-4.22-.73"/>
  <path class="cls-2" d="M83.73,63.39c-3.96,1.32-2.37.92-4.48,1.45s-3.56-3.69-4.22-.73"/>
  <path class="cls-2" d="M153.19,63.75c-3.96,1.32-2.37.92-4.48,1.45s-3.56-3.69-4.22-.73"/>
  <path class="cls-2" d="M100.27,14.37c-3.96,1.32-2.37.92-4.48,1.45s-3.56-3.69-4.22-.73"/>
  <path class="cls-2" d="M182.39,9.4c-3.96,1.32-2.37.92-4.48,1.45s-3.56-3.69-4.22-.73"/>
  <path class="cls-2" d="M89.1,44.28c-3.96,1.32-2.37.92-4.48,1.45s-3.56-3.69-4.22-.73"/>
  <path class="cls-2" d="M21.75,46.31c1.58,2.11,2.15,1.94,2.51,2.64s-6.85-.67-.72,2.9"/>
  <path class="cls-2" d="M5.6,61.41c-.79-.13-1.58-.92-2.64-.66s-.66.73-1.58,1.05"/>
  <path class="cls-2" d="M212.17,61.97c-.79-.13-1.58-.92-2.64-.66s-.66.73-1.58,1.05"/>
  <path class="cls-2" d="M89.93,38.09c-.79-.13-1.58-.92-2.64-.66s-.66.73-1.58,1.05"/>
  <path class="cls-2" d="M169.83,41.1c-.79-.13-1.58-.92-2.64-.66s-.66.73-1.58,1.05"/>
  <path class="cls-2" d="M29.4,48.03c0,.26-.59.79.4,1.32s1.98-.2,1.58,1.05,2.31,2.64,2.18,3.89"/>
  <path class="cls-2" d="M195.13,54.85c0,.26-.59.79.4,1.32s1.98-.2,1.58,1.05,2.31,2.64,2.18,3.89"/>
  <path class="cls-2" d="M188.9,74.72c0,.26-.59.79.4,1.32s1.98-.2,1.58,1.05,2.31,2.64,2.18,3.89"/>
  <path class="cls-2" d="M93.93,67.09c0,.26-.59.79.4,1.32s1.98-.2,1.58,1.05,2.31,2.64,2.18,3.89"/>
  <path class="cls-2" d="M40.48,48.03c-.53-.73-3.23-1.12-1.65.73s1.78,1.58,2.24,2.41.46.69.13,1.62"/>
  <path class="cls-2" d="M202.53,51.54c-.53-.73-3.23-1.12-1.65.73s1.78,1.58,2.24,2.41.46.69.13,1.62"/>
  <path class="cls-2" d="M262.23,69.38c.88-.73,5.41-1.12,2.76.73s-2.98,1.58-3.75,2.41-.77.69-.22,1.62"/>
  <path class="cls-2" d="M249.16,75.53c.88-.73,5.41-1.12,2.76.73s-2.98,1.58-3.75,2.41-.77.69-.22,1.62"/>
  <path class="cls-2" d="M299.39,43.23c-.53-.73-3.23-1.12-1.65.73s1.78,1.58,2.24,2.41.46.69.13,1.62"/>
  <path class="cls-2" d="M306.51,36.72c-.53-.73-3.23-1.12-1.65.73s1.78,1.58,2.24,2.41.46.69.13,1.62"/>
  <path class="cls-2" d="M304.96,63.18c-.53-.73-3.23-1.12-1.65.73s1.78,1.58,2.24,2.41.46.69.13,1.62"/>
  <path class="cls-2" d="M147.88,24.46c-.53-.73-3.23-1.12-1.65.73s1.78,1.58,2.24,2.41.46.69.13,1.62"/>
  <path class="cls-2" d="M106.99,64.57c-.53-.73-3.23-1.12-1.65.73s1.78,1.58,2.24,2.41.46.69.13,1.62"/>
  <path class="cls-2" d="M51.36,55.28c-.2.07-1.19-1.12-2.7-.33s-1.58.4-2.04,1.91.46,1.25-1.38,2.04"/>
  <path class="cls-2" d="M52.02,66.09c-.4-.13-.33-.59-1.32-.46s-2.11-1.19-2.41.59,2.08,1.71-.3,1.78"/>
  <path class="cls-2" d="M115.38,46.87c-.4-.13-.33-.59-1.32-.46s-2.11-1.19-2.41.59,2.08,1.71-.3,1.78"/>
  <path class="cls-2" d="M181.34,43.39c-.4-.13-.33-.59-1.32-.46s-2.11-1.19-2.41.59,2.08,1.71-.3,1.78"/>
  <path class="cls-2" d="M122.92,68.31c-.4-.13-.33-.59-1.32-.46s-2.11-1.19-2.41.59,2.08,1.71-.3,1.78"/>
  <path class="cls-2" d="M180.05,72.8c-.4-.13-.33-.59-1.32-.46s-2.11-1.19-2.41.59,2.08,1.71-.3,1.78"/>
  <path class="cls-2" d="M53.2,73.94c.79,1.25,3.03,3.36,2.11,3.63s-2.9-.13-2.11.73"/>
  <path class="cls-2" d="M130.61,74.18c.79,1.25,3.03,3.36,2.11,3.63s-2.9-.13-2.11.73"/>
  <path class="cls-2" d="M67.97,69.12c.53.4,1.45,1.12,1.45,1.12,0,0-.92-3.89,1.12-2.44"/>
  <path class="cls-2" d="M146.06,73.88c.53.4,1.45,1.12,1.45,1.12,0,0-.92-3.89,1.12-2.44"/>
  <path class="cls-2" d="M124.64,32.17c.53.4,1.45,1.12,1.45,1.12,0,0-.92-3.89,1.12-2.44"/>
  <path class="cls-2" d="M65.73,56.07c-.2.66-1.12,1.65.79,1.65s-.99.59,2.18,0,1.98-1.65,3.16-.59"/>
  <path class="cls-2" d="M145.97,53.33c-.2.66-1.12,1.65.79,1.65s-.99.59,2.18,0,1.98-1.65,3.16-.59"/>
  <path class="cls-2" d="M145.97,42.98c-.2.66-1.12,1.65.79,1.65s-.99.59,2.18,0,1.98-1.65,3.16-.59"/>
  <path class="cls-2" d="M239.86,65.28c-.2.66-1.12,1.65.79,1.65s-.99.59,2.18,0,1.98-1.65,3.16-.59"/>
  <path class="cls-2" d="M164.85,64.33c-.2.66-1.12,1.65.79,1.65s-.99.59,2.18,0,1.98-1.65,3.16-.59"/>
  <path class="cls-2" d="M130.82,50.89c-.2.66-1.12,1.65.79,1.65s-.99.59,2.18,0,1.98-1.65,3.16-.59"/>
  <path class="cls-2" d="M194.26,34.01c-.2.66-1.12,1.65.79,1.65s-.99.59,2.18,0,1.98-1.65,3.16-.59"/>
  <path class="cls-2" d="M257.75,36.09c-.2.66-1.12,1.65.79,1.65s-.99.59,2.18,0,1.98-1.65,3.16-.59"/>
  <path class="cls-2" d="M356.81,65.54c-.2.66-1.12,1.65.79,1.65s-.99.59,2.18,0,1.98-1.65,3.16-.59"/>
  <path class="cls-2" d="M340.15,26.25c-.2.66-1.12,1.65.79,1.65s-.99.59,2.18,0,1.98-1.65,3.16-.59"/>
  <path class="cls-2" d="M442.1,11.14c-.2.66-1.12,1.65.79,1.65s-.99.59,2.18,0,1.98-1.65,3.16-.59"/>
  <path class="cls-2" d="M550.15,6.49c-.2.66-1.12,1.65.79,1.65s-.99.59,2.18,0,1.98-1.65,3.16-.59"/>
  <path class="cls-2" d="M615.67,33.1c-.2,1.13-1.12,2.83.79,2.83s-.99,1.02,2.18,0,1.98-2.83,3.16-1.02"/>
  <path class="cls-2" d="M639.52,30.19c-.2,1.13-1.12,2.83.79,2.83s-.99,1.02,2.18,0,1.98-2.83,3.16-1.02"/>
  <path class="cls-2" d="M635.58,41.14c-.2,1.13-1.12,2.83.79,2.83s-.99,1.02,2.18,0,1.98-2.83,3.16-1.02"/>
  <path class="cls-2" d="M638.84,20.04c-.2,1.13-1.12,2.83.79,2.83s-.99,1.02,2.18,0,1.98-2.83,3.16-1.02"/>
  <path class="cls-2" d="M580.81,31.64c-.2,1.13-1.12,2.83.79,2.83s-.99,1.02,2.18,0,1.98-2.83,3.16-1.02"/>
  <path class="cls-2" d="M492.85,7.17c-.2.66-1.12,1.65.79,1.65s-.99.59,2.18,0,1.98-1.65,3.16-.59"/>
  <path class="cls-2" d="M63.03,48.37s2.7-1.12,3.59-1.38.36-.92,1.88-.13-.46,1.19,2.31,1.12,3.36-.53,4.22-.99"/>
  <path class="cls-2" d="M64.54,40.71c.66.07,1.05-.59,2.97-1.32s2.31-1.38,3.03-1.45,2.44.33,2.97.53"/>
  <path class="cls-2" d="M145.74,37.75c.66.07,1.05-.59,2.97-1.32s2.31-1.38,3.03-1.45,2.44.33,2.97.53"/>
  <path class="cls-2" d="M164.45,34.67c.66.07,1.05-.59,2.97-1.32s2.31-1.38,3.03-1.45,2.44.33,2.97.53"/>
  <path class="cls-2" d="M124.64,37.75c.66.07,1.05-.59,2.97-1.32s2.31-1.38,3.03-1.45,2.44.33,2.97.53"/>
  <path class="cls-2" d="M226.3,25.44c.66.07,1.05-.59,2.97-1.32s2.31-1.38,3.03-1.45,2.44.33,2.97.53"/>
  <path class="cls-2" d="M65.01,30.29s1.85-.99,3.69-.2,1.25,1.12,3.16.86,2.57-.66,2.57-.66"/>
  <path class="cls-2" d="M66.46,18.36c.33.07,1.25.86,2.9-.46s1.19-2.37,2.37-2.11,1.91.07,3.03,1.65"/>
  <path class="cls-2" d="M210.06,28.35c.33.07,1.25.86,2.9-.46s1.19-2.37,2.37-2.11,1.91.07,3.03,1.65"/>
  <path class="cls-2" d="M276.08,28.35c.33.07,1.25.86,2.9-.46s1.19-2.37,2.37-2.11,1.91.07,3.03,1.65"/>
  <path class="cls-2" d="M126.25,47.47c.33.07,1.25.86,2.9-.46s1.19-2.37,2.37-2.11,1.91.07,3.03,1.65"/>
  <path class="cls-2" d="M134.56,61.52c.33.07,1.25.86,2.9-.46s1.19-2.37,2.37-2.11,1.91.07,3.03,1.65"/>
  <path class="cls-2" d="M118.9,24.44c.33.07,1.25.86,2.9-.46s1.19-2.37,2.37-2.11,1.91.07,3.03,1.65"/>
  <path class="cls-2" d="M216.79,9.69c.33.07,1.25.86,2.9-.46s1.19-2.37,2.37-2.11,1.91.07,3.03,1.65"/>
  <path class="cls-2" d="M253.2,8.23c.33.07,1.25.86,2.9-.46s1.19-2.37,2.37-2.11,1.91.07,3.03,1.65"/>
  <path class="cls-2" d="M366.36,42.49c.33.07,1.25.86,2.9-.46s1.19-2.37,2.37-2.11,1.91.07,3.03,1.65"/>
  <path class="cls-2" d="M461.65,52.98c.33.07,1.25.86,2.9-.46s1.19-2.37,2.37-2.11,1.91.07,3.03,1.65"/>
  <path class="cls-2" d="M504.22,34.45c.33.07,1.25.86,2.9-.46s1.19-2.37,2.37-2.11,1.91.07,3.03,1.65"/>
  <path class="cls-2" d="M544.71,29.71c.33.07,1.25.86,2.9-.46s1.19-2.37,2.37-2.11,1.91.07,3.03,1.65"/>
  <path class="cls-2" d="M426.98,55.45c.33.07,1.25.86,2.9-.46s1.19-2.37,2.37-2.11,1.91.07,3.03,1.65"/>
  <path class="cls-2" d="M477.09,25.75c.33.07,1.25.86,2.9-.46s1.19-2.37,2.37-2.11,1.91.07,3.03,1.65"/>
  <path class="cls-2" d="M480.19,61.81c.33.07,1.25.86,2.9-.46s1.19-2.37,2.37-2.11,1.91.07,3.03,1.65"/>
  <path class="cls-2" d="M521.07,54c.33.07,1.25.86,2.9-.46s1.19-2.37,2.37-2.11,1.91.07,3.03,1.65"/>
  <path class="cls-2" d="M523.12,43.94c.33.07,1.25.86,2.9-.46s1.19-2.37,2.37-2.11,1.91.07,3.03,1.65"/>
  <path class="cls-2" d="M482.43,54.92c.33.07,1.25.86,2.9-.46s1.19-2.37,2.37-2.11,1.91.07,3.03,1.65"/>
  <path class="cls-2" d="M562.06,32.99c.33.07,1.25.86,2.9-.46s1.19-2.37,2.37-2.11,1.91.07,3.03,1.65"/>
  <path class="cls-2" d="M482.43,29.71c.33.07,1.25.86,2.9-.46s1.19-2.37,2.37-2.11,1.91.07,3.03,1.65"/>
  <path class="cls-2" d="M524.17,20.96c.33.07,1.25.86,2.9-.46s1.19-2.37,2.37-2.11,1.91.07,3.03,1.65"/>
  <path class="cls-2" d="M560.7,25.01c.33.07,1.25.86,2.9-.46s1.19-2.37,2.37-2.11,1.91.07,3.03,1.65"/>
  <path class="cls-2" d="M504.22,56.37c.33.07,1.25.86,2.9-.46s1.19-2.37,2.37-2.11,1.91.07,3.03,1.65"/>
  <path class="cls-2" d="M546.49,61.03c.33.07,1.25.86,2.9-.46s1.19-2.37,2.37-2.11,1.91.07,3.03,1.65"/>
  <path class="cls-2" d="M386.67,52.98c.33.07,1.25.86,2.9-.46s1.19-2.37,2.37-2.11,1.91.07,3.03,1.65"/>
  <path class="cls-2" d="M395.47,39.95c.33.07,1.25.86,2.9-.46s1.19-2.37,2.37-2.11,1.91.07,3.03,1.65"/>
  <path class="cls-2" d="M396.66,20.25c.33.06,1.26.85,2.9-.48s1.17-2.38,2.36-2.13,1.91.05,3.05,1.62"/>
  <path class="cls-2" d="M327.11,7.83c.33.07,1.25.86,2.9-.46s1.19-2.37,2.37-2.11,1.91.07,3.03,1.65"/>
  <path class="cls-2" d="M241.84,7.83c.33.07,1.25.86,2.9-.46s1.19-2.37,2.37-2.11,1.91.07,3.03,1.65"/>
  <path class="cls-2" d="M364.68,51.52c.33.07,1.25.86,2.9-.46s1.19-2.37,2.37-2.11,1.91.07,3.03,1.65"/>
  <path class="cls-2" d="M415.05,52.98c.33.07,1.25.86,2.9-.46s1.19-2.37,2.37-2.11,1.91.07,3.03,1.65"/>
  <path class="cls-2" d="M388.34,63.73c.33.07,1.25.86,2.9-.46s1.19-2.37,2.37-2.11,1.91.07,3.03,1.65"/>
  <path class="cls-2" d="M397.84,51.52c.33.07,1.25.86,2.9-.46s1.19-2.37,2.37-2.11,1.91.07,3.03,1.65"/>
  <path class="cls-2" d="M67.45,9.78c-.92-1.32-1.25-1.71-1.52-2.37s-3.89-.59-.92-1.32,3.3-.92,3.3-.92l-1.85-1.91"/>
  <path class="cls-2" d="M58.41,8.33c-.53-1.45-.79-3.96-1.32-4.68s-2.77-.26-2.51-1.52.73-1.65.59-1.91"/>
  <path class="cls-2" d="M115.29,10.72c-.53-1.45-.79-3.96-1.32-4.68s-2.77-.26-2.51-1.52.73-1.65.59-1.91"/>
  <path class="cls-2" d="M194.73,10.72c-.53-1.45-.79-3.96-1.32-4.68s-2.77-.26-2.51-1.52.73-1.65.59-1.91"/>
  <path class="cls-2" d="M271.8,10.72c-.53-1.45-.79-3.96-1.32-4.68s-2.77-.26-2.51-1.52.73-1.65.59-1.91"/>
  <path class="cls-2" d="M370.52,19.06c-.53-1.45-.79-3.96-1.32-4.68s-2.77-.26-2.51-1.52.73-1.65.59-1.91"/>
  <path class="cls-2" d="M466.57,67.4c-.53-1.45-.79-3.96-1.32-4.68s-2.77-.26-2.51-1.52.73-1.65.59-1.91"/>
  <path class="cls-2" d="M468.49,24.59c-.53-1.45-.79-3.96-1.32-4.68s-2.77-.26-2.51-1.52.73-1.65.59-1.91"/>
  <path class="cls-2" d="M372.44,33.75c-.53-1.45-.79-3.96-1.32-4.68s-2.77-.26-2.51-1.52.73-1.65.59-1.91"/>
  <path class="cls-2" d="M467.73,43.93c-.53-1.45-.79-3.96-1.32-4.68s-2.77-.26-2.51-1.52.73-1.65.59-1.91"/>
  <path class="cls-2" d="M446.89,45.39c-.53-1.45-.79-3.96-1.32-4.68s-2.77-.26-2.51-1.52.73-1.65.59-1.91"/>
  <path class="cls-2" d="M446.89,37.34c-.53-1.45-.79-3.96-1.32-4.68s-2.77-.26-2.51-1.52.73-1.65.59-1.91"/>
  <path class="cls-2" d="M540.65,12.14c-.53-1.45-.79-3.96-1.32-4.68s-2.77-.26-2.51-1.52.73-1.65.59-1.91"/>
  <path class="cls-2" d="M510.3,11.5c-.53-1.45-.79-3.96-1.32-4.68s-2.77-.26-2.51-1.52.73-1.65.59-1.91"/>
  <path class="cls-2" d="M481.55,12.14c-.53-1.45-.79-3.96-1.32-4.68s-2.77-.26-2.51-1.52.73-1.65.59-1.91"/>
  <path class="cls-2" d="M516.37,27.91c-.53-1.45-.79-3.96-1.32-4.68s-2.77-.26-2.51-1.52.73-1.65.59-1.91"/>
  <path class="cls-2" d="M446.89,27.23c-.53-1.45-.79-3.96-1.32-4.68s-2.77-.26-2.51-1.52.73-1.65.59-1.91"/>
  <path class="cls-2" d="M348.2,12.39c-.53-1.45-.79-3.96-1.32-4.68s-2.77-.26-2.51-1.52.73-1.65.59-1.91"/>
  <path class="cls-2" d="M412.22,11.5c-.53-1.45-.79-3.96-1.32-4.68s-2.77-.26-2.51-1.52.73-1.65.59-1.91"/>
  <path class="cls-2" d="M366.36,37.34c-.53-1.45-.79-3.96-1.32-4.68s-2.77-.26-2.51-1.52.73-1.65.59-1.91"/>
  <path class="cls-2" d="M466.57,73.58c-.53-1.45-.79-3.96-1.32-4.68s-2.77-.26-2.51-1.52.73-1.65.59-1.91"/>
  <path class="cls-2" d="M467.73,34.67c-.53-1.45-.79-3.96-1.32-4.68s-2.77-.26-2.51-1.52.73-1.65.59-1.91"/>
  <path class="cls-2" d="M425.28,19.28c-.53-1.45-.79-3.96-1.32-4.68s-2.77-.26-2.51-1.52.73-1.65.59-1.91"/>
  <path class="cls-2" d="M421.77,48.1c-.53-1.45-.79-3.96-1.32-4.68s-2.77-.26-2.51-1.52.73-1.65.59-1.91"/>
  <path class="cls-2" d="M51.36,21.45c-1.71.33-3.1.07-3.1.07,0,0,.79-.79-.73-.07s-1.65.86-2.11,1.05"/>
  <path class="cls-2" d="M123.88,13.89c-1.71.33-3.1.07-3.1.07,0,0,.79-.79-.73-.07s-1.65.86-2.11,1.05"/>
  <path class="cls-2" d="M236.72,35.99c-1.71.33-3.1.07-3.1.07,0,0,.79-.79-.73-.07s-1.65.86-2.11,1.05"/>
  <path class="cls-2" d="M511.34,43.56c-1.71.33-3.1.07-3.1.07,0,0,.79-.79-.73-.07s-1.65.86-2.11,1.05"/>
  <path class="cls-2" d="M550.64,53.92c-1.71.33-3.1.07-3.1.07,0,0,.79-.79-.73-.07s-1.65.86-2.11,1.05"/>
  <path class="cls-2" d="M511.34,66.12c-1.71.33-3.1.07-3.1.07,0,0,.79-.79-.73-.07s-1.65.86-2.11,1.05"/>
  <path class="cls-2" d="M571.29,56.43c-.51,1.67-1.39,2.77-1.39,2.77,0,0-.33-1.07-.4.61s-.01,1.86-.05,2.36"/>
  <path class="cls-2" d="M613.05,20.98c-.51,1.67-1.39,2.77-1.39,2.77,0,0-.33-1.07-.4.61s-.01,1.86-.05,2.36"/>
  <path class="cls-2" d="M591.23,3.61c-.51,1.67-1.39,2.77-1.39,2.77,0,0-.33-1.07-.4.61s-.01,1.86-.05,2.36"/>
  <path class="cls-2" d="M602.8,2.35c-.51,1.67-1.39,2.77-1.39,2.77,0,0-.33-1.07-.4.61s-.01,1.86-.05,2.36"/>
  <path class="cls-2" d="M584.6,44.61c-.51,1.67-1.39,2.77-1.39,2.77,0,0-.33-1.07-.4.61s-.01,1.86-.05,2.36"/>
  <path class="cls-2" d="M612.14,52.34c-.51,1.67-1.39,2.77-1.39,2.77,0,0-.33-1.07-.4.61s-.01,1.86-.05,2.36"/>
  <path class="cls-2" d="M636.1,57c-.51,1.67-1.39,2.77-1.39,2.77,0,0-.33-1.07-.4.61s-.01,1.86-.05,2.36"/>
  <path class="cls-2" d="M626.18,5.22c-.51,1.67-1.39,2.77-1.39,2.77,0,0-.33-1.07-.4.61s-.01,1.86-.05,2.36"/>
  <path class="cls-2" d="M591.94,74.22c-.51,1.67-1.39,2.77-1.39,2.77,0,0-.33-1.07-.4.61s-.01,1.86-.05,2.36"/>
  <path class="cls-2" d="M607.85,69.02c-1.72.27-3.1-.04-3.1-.04,0,0,.82-.76-.72-.09s-1.68.8-2.14.98"/>
  <path class="cls-2" d="M567.27,48.7c-1.38,1.06-2.74,1.45-2.74,1.45,0,0,.35-1.06-.68.27s-1.09,1.51-1.41,1.89"/>
  <path class="cls-2" d="M620.95,68.07c-1.38,1.06-2.74,1.45-2.74,1.45,0,0,.35-1.06-.68.27s-1.09,1.51-1.41,1.89"/>
  <path class="cls-2" d="M643.27,66.86c-1.38,1.06-2.74,1.45-2.74,1.45,0,0,.35-1.06-.68.27s-1.09,1.51-1.41,1.89"/>
  <path class="cls-2" d="M242.6,26.15c-1.71.33-3.1.07-3.1.07,0,0,.79-.79-.73-.07s-1.65.86-2.11,1.05"/>
  <path class="cls-2" d="M303.18,26.15c-1.71.33-3.1.07-3.1.07,0,0,.79-.79-.73-.07s-1.65.86-2.11,1.05"/>
  <path class="cls-2" d="M395.47,14.17c-1.71.33-3.1.07-3.1.07,0,0,.79-.79-.73-.07s-1.65.86-2.11,1.05"/>
  <path class="cls-2" d="M362.52,44.35c-1.71.33-3.1.07-3.1.07,0,0,.79-.79-.73-.07s-1.65.86-2.11,1.05"/>
  <path class="cls-2" d="M295.55,11.73c-1.71.33-3.1.07-3.1.07,0,0,.79-.79-.73-.07s-1.65.86-2.11,1.05"/>
  <path class="cls-2" d="M359.55,12.41c-1.71.33-3.1.07-3.1.07,0,0,.79-.79-.73-.07s-1.65.86-2.11,1.05"/>
  <path class="cls-2" d="M344.65,36.67c-1.71.33-3.1.07-3.1.07,0,0,.79-.79-.73-.07s-1.65.86-2.11,1.05"/>
  <path class="cls-2" d="M339.75,23.48c-1.71.33-3.1.07-3.1.07,0,0,.79-.79-.73-.07s-1.65.86-2.11,1.05"/>
  <path class="cls-2" d="M284.18,7.75c-1.71.33-3.1.07-3.1.07,0,0,.79-.79-.73-.07s-1.65.86-2.11,1.05"/>
  <path class="cls-2" d="M373.48,63.65c-1.71.33-3.1.07-3.1.07,0,0,.79-.79-.73-.07s-1.65.86-2.11,1.05"/>
  <path class="cls-2" d="M392.5,40.28c-1.71.33-3.1.07-3.1.07,0,0,.79-.79-.73-.07s-1.65.86-2.11,1.05"/>
  <path class="cls-2" d="M395.47,24.16c-1.71.33-3.1.07-3.1.07,0,0,.79-.79-.73-.07s-1.65.86-2.11,1.05"/>
  <path class="cls-2" d="M403.78,28.86c-1.71.33-3.1.07-3.1.07,0,0,.79-.79-.73-.07s-1.65.86-2.11,1.05"/>
  <path class="cls-2" d="M330.08,35.99c-1.71.33-3.1.07-3.1.07,0,0,.79-.79-.73-.07s-1.65.86-2.11,1.05"/>
  <path class="cls-2" d="M93.75,30.04c-1.71.33-3.1.07-3.1.07,0,0,.79-.79-.73-.07s-1.65.86-2.11,1.05"/>
  <path class="cls-2" d="M171.9,23.48c-1.71.33-3.1.07-3.1.07,0,0,.79-.79-.73-.07s-1.65.86-2.11,1.05"/>
  <path class="cls-2" d="M44.63,34.38c.13-1.19-.33-2.19-1.05-3.34s-1.19.04-1.52-1.61"/>
  <path class="cls-2" d="M164.32,79.34c.13-1.19-.33-2.19-1.05-3.34s-1.19.04-1.52-1.61"/>
  <path class="cls-2" d="M104.83,9.14c.13-1.19-.33-2.19-1.05-3.34s-1.19.04-1.52-1.61"/>
  <path class="cls-2" d="M93.36,26.53c.13-1.19-.33-2.19-1.05-3.34s-1.19.04-1.52-1.61"/>
  <path class="cls-2" d="M179.31,65.52c.13-1.19-.33-2.19-1.05-3.34s-1.19.04-1.52-1.61"/>
  <path class="cls-2" d="M230.76,48.95c.13-1.19-.33-2.19-1.05-3.34s-1.19.04-1.52-1.61"/>
  <path class="cls-2" d="M243.12,60.45c.13-1.19-.33-2.19-1.05-3.34s-1.19.04-1.52-1.61"/>
  <path class="cls-2" d="M289.59,61.7c.13-1.19-.33-2.19-1.05-3.34s-1.19.04-1.52-1.61"/>
  <path class="cls-2" d="M184.37,80.32c.13-1.19-.33-2.19-1.05-3.34s-1.19.04-1.52-1.61"/>
  <path class="cls-2" d="M328.39,65.04c.13-1.19-.33-2.19-1.05-3.34s-1.19.04-1.52-1.61"/>
  <path class="cls-2" d="M313.5,79.56c.13-1.19-.33-2.19-1.05-3.34s-1.19.04-1.52-1.61"/>
  <path class="cls-2" d="M307.19,56.76c.13-1.19-.33-2.19-1.05-3.34s-1.19.04-1.52-1.61"/>
  <path class="cls-2" d="M198.4,25.64c.13-1.19-.33-2.19-1.05-3.34s-1.19.04-1.52-1.61"/>
  <path class="cls-2" d="M263.19,27.01c.13-1.19-.33-2.19-1.05-3.34s-1.19.04-1.52-1.61"/>
  <path class="cls-2" d="M392.1,34.02c.13-1.19-.33-2.19-1.05-3.34s-1.19.04-1.52-1.61"/>
  <path class="cls-2" d="M365.71,74.47c.13-1.19-.33-2.19-1.05-3.34s-1.19.04-1.52-1.61"/>
  <path class="cls-2" d="M547.76,81.3c.13-1.19-.33-2.19-1.05-3.34s-1.19.04-1.52-1.61"/>
  <path class="cls-2" d="M568.54,79.56c.13-1.19-.33-2.19-1.05-3.34s-1.19.04-1.52-1.61"/>
  <path class="cls-2" d="M34.08,34.97c0-.53,1.12-3.16.79-3.56s-2.37-.26-1.65-1.85"/>
  <path class="cls-2" d="M159.45,11.04c0-.53,1.12-3.16.79-3.56s-2.37-.26-1.65-1.85"/>
  <path class="cls-2" d="M20.5,27.19c.26-.33.83-1.91,2.16-2.57s.37-.99,1.61-.73-.01,1.12,1.24.26-.4-5.05,2.51-2.33"/>
  <path class="cls-2" d="M175.57,35.4c.26-.33.83-1.91,2.16-2.57s.37-.99,1.61-.73-.01,1.12,1.24.26-.4-5.05,2.51-2.33"/>
  <path class="cls-2" d="M269.22,65.5c.26-.33.83-1.91,2.16-2.57s.37-.99,1.61-.73-.01,1.12,1.24.26-.4-5.05,2.51-2.33"/>
  <path class="cls-2" d="M336.13,74.58c.26-.33.83-1.91,2.16-2.57s.37-.99,1.61-.73-.01,1.12,1.24.26-.4-5.05,2.51-2.33"/>
  <path class="cls-2" d="M431.53,36.88c.26-.33.83-1.91,2.16-2.57s.37-.99,1.61-.73-.01,1.12,1.24.26-.4-5.05,2.51-2.33"/>
  <path class="cls-2" d="M175.57,54.29c.26-.33.83-1.91,2.16-2.57s.37-.99,1.61-.73-.01,1.12,1.24.26-.4-5.05,2.51-2.33"/>
  <path class="cls-2" d="M19.64,14.27s4.02-.92,5.08-1.25-.26-1.12,1.58-.59,1.45,1.78,3.36.4l1.91-1.38"/>
  <path class="cls-2" d="M161.75,17.16s4.02-.92,5.08-1.25-.26-1.12,1.58-.59,1.45,1.78,3.36.4l1.91-1.38"/>
  <path class="cls-2" d="M142.87,14.25s4.02-.92,5.08-1.25-.26-1.12,1.58-.59,1.45,1.78,3.36.4l1.91-1.38"/>
  <path class="cls-2" d="M222.23,15.22s4.02-.92,5.08-1.25-.26-1.12,1.58-.59,1.45,1.78,3.36.4l1.91-1.38"/>
  <path class="cls-2" d="M236.76,17.38s4.02-.92,5.08-1.25-.26-1.12,1.58-.59,1.45,1.78,3.36.4l1.91-1.38"/>
  <path class="cls-2" d="M385.24,70.74s4.02-.92,5.08-1.25-.26-1.12,1.58-.59,1.45,1.78,3.36.4l1.91-1.38"/>
  <path class="cls-2" d="M415.05,68.87s4.02-.92,5.08-1.25-.26-1.12,1.58-.59,1.45,1.78,3.36.4l1.91-1.38"/>
  <path class="cls-2" d="M396.03,59.87s4.02-.92,5.08-1.25-.26-1.12,1.58-.59,1.45,1.78,3.36.4l1.91-1.38"/>
  <path class="cls-2" d="M413.88,60.65s4.02-.92,5.08-1.25-.26-1.12,1.58-.59,1.45,1.78,3.36.4l1.91-1.38"/>
  <path class="cls-2" d="M315.18,8.09s4.02-.92,5.08-1.25-.26-1.12,1.58-.59,1.45,1.78,3.36.4l1.91-1.38"/>
  <path class="cls-2" d="M301.58,15s4.02-.92,5.08-1.25-.26-1.12,1.58-.59,1.45,1.78,3.36.4l1.91-1.38"/>
  <path class="cls-2" d="M14.7,6.16c-2.84,1.91-.13,1.19-.33,3.36s-.64.92-.32,4.29"/>
  <path class="cls-2" d="M209.32,4.51c-2.84,1.91-.13,1.19-.33,3.36s-.64.92-.32,4.29"/>
  <path class="cls-2" d="M.13,14.27c1.25-.33,3.43-.66,3.59-1.05s-1.09-.4.49-.36,1.52.16,1.71.43.92.33,1.25.99,1.19,2.24,1.45,2.44"/>
  <path class="cls-2" d="M2.37,29.78c.53-.29,2.44-.22,3.03-.35s.33.44.99.98,1.19.47,2.57.93,1.98,1.71,1.98,1.71"/>
  <path class="cls-2" d="M1.91,40.71c1.58-.8,3.96-2.11,4.75-1.85s-1.45.46,1.38,1.32,3.03.93,3.63.53,1.19-.83,1.19-.83"/>
  <path class="cls-2" d="M1.05,70.25c1.32-.73,5.01-2.24,5.47-1.91s-3.1,1.65,1.19,1.38"/>
  <path class="cls-2" d="M210.89,72.46c1.32-.73,5.01-2.24,5.47-1.91s-3.1,1.65,1.19,1.38"/>
  <path class="cls-2" d="M77.06,57.05c1.32-.73,5.01-2.24,5.47-1.91s-3.1,1.65,1.19,1.38"/>
  <path class="cls-2" d="M11.14,73.94c-.4-.13.2,2.11.59,2.84s.4,1.25,0,1.91-.72.4-.72,1.12"/>
  <path class="cls-2" d="M19.45,72.82s2.97-.86,4.02,0,.2.46,1.32,1.12.33.59,1.58.86"/>
  <path class="cls-2" d="M33.56,42.09c-1.65-.79-.31-2.36-2.17-1.38s.95,2.96-2.17,1.38"/>
  <path class="cls-2" d="M105.72,44.26c-1.65-.79-.31-2.36-2.17-1.38s.95,2.96-2.17,1.38"/>
  <path class="cls-2" d="M48,40.4c1.85-.02,4.75,1.3,4.88,2.09s-.79,1.32,1.32,2.24"/>
  <path class="cls-2" d="M222,53.08c1.85-.02,4.75,1.3,4.88,2.09s-.79,1.32,1.32,2.24"/>
  <path class="cls-2" d="M239.63,48.99c1.85-.02,4.75,1.3,4.88,2.09s-.79,1.32,1.32,2.24"/>
  <path class="cls-2" d="M164.62,48.99c1.85-.02,4.75,1.3,4.88,2.09s-.79,1.32,1.32,2.24"/>
  <path class="cls-2" d="M108.26,39.38c1.85-.02,4.75,1.3,4.88,2.09s-.79,1.32,1.32,2.24"/>
  <path class="cls-2" d="M229.49,67.15c1.85-.02,4.75,1.3,4.88,2.09s-.79,1.32,1.32,2.24"/>
  <path class="cls-2" d="M239.63,71.45c1.85-.02,4.75,1.3,4.88,2.09s-.79,1.32,1.32,2.24"/>
  <path class="cls-2" d="M208.02,36.32c1.85-.02,4.75,1.3,4.88,2.09s-.79,1.32,1.32,2.24"/>
  <path class="cls-2" d="M236.53,40.4c1.85-.02,4.75,1.3,4.88,2.09s-.79,1.32,1.32,2.24"/>
  <path class="cls-2" d="M269.88,42.73c1.85-.02,4.75,1.3,4.88,2.09s-.79,1.32,1.32,2.24"/>
  <path class="cls-2" d="M367.42,69.28c1.85-.02,4.75,1.3,4.88,2.09s-.79,1.32,1.32,2.24"/>
  <path class="cls-2" d="M333.69,62.16c1.85-.02,4.75,1.3,4.88,2.09s-.79,1.32,1.32,2.24"/>
  <path class="cls-2" d="M318.05,74.92c1.85-.02,4.75,1.3,4.88,2.09s-.79,1.32,1.32,2.24"/>
  <path class="cls-2" d="M174.94,20.34c1.85-.02,4.75,1.3,4.88,2.09s-.79,1.32,1.32,2.24"/>
  <path class="cls-2" d="M258.82,29.38c1.85-.02,4.75,1.3,4.88,2.09s-.79,1.32,1.32,2.24"/>
  <path class="cls-2" d="M365.74,57.07c1.85-.02,4.75,1.3,4.88,2.09s-.79,1.32,1.32,2.24"/>
  <path class="cls-2" d="M438.77,69.28c1.85-.02,4.75,1.3,4.88,2.09s-.79,1.32,1.32,2.24"/>
  <path class="cls-2" d="M481.25,40.62c1.85-.02,4.75,1.3,4.88,2.09s-.79,1.32,1.32,2.24"/>
  <path class="cls-2" d="M524.17,31.12c1.85-.02,4.75,1.3,4.88,2.09s-.79,1.32,1.32,2.24"/>
  <path class="cls-2" d="M435.11,62.16c1.85-.02,4.75,1.3,4.88,2.09s-.79,1.32,1.32,2.24"/>
  <path class="cls-2" d="M482.89,67.12c1.85-.02,4.75,1.3,4.88,2.09s-.79,1.32,1.32,2.24"/>
  <path class="cls-2" d="M522.13,64.33c1.85-.02,4.75,1.3,4.88,2.09s-.79,1.32,1.32,2.24"/>
  <path class="cls-2" d="M353.48,54.12c1.85-.02,4.75,1.3,4.88,2.09s-.79,1.32,1.32,2.24"/>
  <path class="cls-2" d="M425.81,21.01c1.85-.02,4.75,1.3,4.88,2.09s-.79,1.32,1.32,2.24"/>
  <path class="cls-2" d="M136.95,67.48c1.85-.02,4.75,1.3,4.88,2.09s-.79,1.32,1.32,2.24"/>
</svg>